<?xml version="1.0" encoding="utf-8"?>
<!-- Generator: Adobe Illustrator 19.0.0, SVG Export Plug-In . SVG Version: 6.00 Build 0)  -->
<svg version="1.1" id="Layer_1" xmlns="http://www.w3.org/2000/svg" xmlns:xlink="http://www.w3.org/1999/xlink" x="0px" y="0px"
	 viewBox="0 0 595.3 841.9" style="enable-background:new 0 0 595.3 841.9;" xml:space="preserve">
<style type="text/css">
	.st0{clip-path:url(#XMLID_377_);}
	.st1{fill:url(#XMLID_383_);}
	.st2{fill:#ED314F;}
	.st3{fill:#0EDACE;}
	.st4{opacity:0.1;fill:#FFFFFF;}
	.st5{fill:url(#XMLID_398_);}
	.st6{fill:url(#XMLID_429_);}
	.st7{fill:#5E0F88;}
	.st8{fill:#FFFFFF;}
	.st9{fill:url(#XMLID_496_);}
	.st10{fill:#BE1E2D;}
	.st11{fill:#0BB1E5;}
	.st12{fill:#E2E2E0;}
	.st13{fill:#BFBDC6;}
	.st14{fill:#9795A3;}
	.st15{fill:#86858E;}
	.st16{fill:#5E5E68;}
	.st17{fill:url(#XMLID_503_);}
	.st18{fill:url(#XMLID_504_);}
	.st19{fill:#E31D3F;}
	.st20{fill:#F4375B;}
	.st21{fill:#FF8B2C;}
	.st22{fill:url(#XMLID_505_);}
	.st23{fill:url(#XMLID_506_);}
	.st24{fill:url(#XMLID_507_);}
	.st25{fill:url(#XMLID_508_);}
	.st26{fill:url(#XMLID_665_);}
	.st27{fill:#00E0CA;}
	.st28{fill:url(#XMLID_666_);}
	.st29{fill:url(#XMLID_668_);}
	.st30{fill:url(#XMLID_670_);}
	.st31{fill:url(#XMLID_672_);}
	.st32{fill:url(#XMLID_673_);}
	.st33{fill:url(#XMLID_675_);}
	.st34{fill:url(#XMLID_677_);}
	.st35{fill:#EF88B3;}
	.st36{fill:url(#XMLID_678_);}
	.st37{fill:url(#XMLID_679_);}
	.st38{fill:url(#XMLID_680_);}
	.st39{fill:url(#XMLID_681_);}
	.st40{fill:url(#XMLID_682_);}
</style>
<g id="XMLID_667_">
	<defs>
		<rect id="XMLID_664_" width="595.3" height="841.9"/>
	</defs>
	<clipPath id="XMLID_377_">
		<use xlink:href="#XMLID_664_"  style="overflow:visible;"/>
	</clipPath>
	<g id="XMLID_512_" class="st0">
		<linearGradient id="XMLID_383_" gradientUnits="userSpaceOnUse" x1="297.64" y1="8.6111" x2="297.64" y2="833.6189">
			<stop  offset="0" style="stop-color:#040438"/>
			<stop  offset="1" style="stop-color:#0C0C8C"/>
		</linearGradient>
		<rect id="XMLID_42_" class="st1" width="595.3" height="841.9"/>
		<g id="XMLID_480_">
			<path id="XMLID_511_" class="st2" d="M61.4,517.7c-0.3-0.6-1.1-1.1-1.8-1.1c-0.7,0-1.5,0.4-1.8,1.1c-0.7,0.6-1.2,1.4-1.2,2.3
				c0,1.6,1.4,3.1,3,3c1.6-0.1,3.1-1.3,3-3C62.5,519.1,62.1,518.3,61.4,517.7z"/>
			<path id="XMLID_510_" class="st2" d="M248.6,313.3c-0.9,0-1.4,0.8-1.2,1.6c0.1,0.5,0.2,0.9,0.3,1.4c0.3,0.9,1.4,0.9,1.7,0
				c0.2-0.5,0.3-0.9,0.3-1.4C249.9,314.1,249.5,313.3,248.6,313.3z"/>
			<path id="XMLID_509_" class="st2" d="M310.1,329.4c-2.1,0-2.2,3.3,0,3.3C312.2,332.8,312.2,329.4,310.1,329.4z"/>
			<path id="XMLID_502_" class="st2" d="M314.1,477.8c-0.3,0.1-0.6,0.2-0.8,0.3c0,0,0,0-0.1,0c-0.7,0.2-1.1,0.9-1,1.6
				c0,0.6,0.4,1.2,1,1.3c0,0,0,0,0,0c0.3,0.1,0.6,0.2,0.8,0.3C317.1,482.6,317.1,476.5,314.1,477.8z"/>
			<path id="XMLID_501_" class="st2" d="M284.6,563.2c-2.4,0-2.4,3.8,0,3.8C287,567,287,563.2,284.6,563.2z"/>
			<path id="XMLID_500_" class="st2" d="M260.6,630c-1.3,0-1.3,2.1,0,2.1C261.9,632.1,261.9,630,260.6,630z"/>
			<path id="XMLID_499_" class="st2" d="M415.1,491.1c-2.5,0-2.5,3.9,0,3.9C417.6,495.1,417.6,491.1,415.1,491.1z"/>
			<path id="XMLID_498_" class="st2" d="M509.6,508c-2.1,0-2.1,3.2,0,3.2C511.7,511.2,511.7,508,509.6,508z"/>
			<path id="XMLID_497_" class="st2" d="M556.1,741.9c-0.4,0-0.9,0-1.3,0.1c-0.8,0-1.6,0.7-1.6,1.6c0,0.9,0.7,1.5,1.6,1.6
				c0.4,0,0.9,0,1.3,0.1c0.9,0,1.7-0.8,1.7-1.7C557.7,742.7,557,741.9,556.1,741.9z"/>
			<path id="XMLID_495_" class="st2" d="M565.1,518.3c-2.3,0-2.3,3.6,0,3.6C567.4,521.9,567.4,518.3,565.1,518.3z"/>
			<path id="XMLID_494_" class="st2" d="M16.1,699.5c-4.6,0-4.6,7.2,0,7.2C20.7,706.7,20.7,699.5,16.1,699.5z"/>
			<path id="XMLID_493_" class="st2" d="M19.1,806.3c-0.9,0-1.8,0.8-1.8,1.8c0,0.4,0,0.9,0,1.3c0,0.9,0.8,1.8,1.8,1.8
				c1,0,1.7-0.8,1.8-1.8c0-0.4,0-0.9,0-1.3C20.9,807.1,20.1,806.3,19.1,806.3z"/>
			<path id="XMLID_492_" class="st2" d="M262.1,816.5c-0.4,0-0.9,0-1.3,0c-0.2,0-0.4,0.1-0.5,0.3c-0.1,0.2-0.1,0.3,0,0.5
				c0.1,0.2,0.3,0.3,0.5,0.3c0.4,0,0.9,0,1.3,0C262.8,817.7,262.8,816.5,262.1,816.5z"/>
			<path id="XMLID_491_" class="st2" d="M241.1,575.2c-2.5,0-2.5,3.8,0,3.8C243.6,579,243.6,575.2,241.1,575.2z"/>
			<path id="XMLID_490_" class="st2" d="M199.1,259.4c-1.6,0-1.6,2.5,0,2.5C200.7,261.8,200.7,259.4,199.1,259.4z"/>
			<path id="XMLID_489_" class="st2" d="M305.6,168.9c-2.1,0-2.2,3.3,0,3.3C307.7,172.3,307.7,168.9,305.6,168.9z"/>
			<path id="XMLID_488_" class="st2" d="M233.6,47.5c-4,0-4,6.2,0,6.2C237.6,53.7,237.6,47.5,233.6,47.5z"/>
			<path id="XMLID_484_" class="st2" d="M524.5,75.7c-0.2-0.5-0.8-1-1.4-1c-0.5,0-1.1,0.3-1.3,0.8c-0.3,0.5-0.3,1.4,0.2,1.8l0.1,0.6
				c0.2,1,1.8,1,2.1,0c0-0.2,0.1-0.4,0.1-0.6C524.7,76.9,524.7,76.2,524.5,75.7z"/>
			<path id="XMLID_483_" class="st2" d="M551.6,120.8c-2.3,0-2.3,3.6,0,3.6C553.9,124.4,553.9,120.8,551.6,120.8z"/>
			<path id="XMLID_481_" class="st2" d="M89.2,35c-0.1-0.2-0.2-0.4-0.3-0.6c-0.7-1.2-2.3-1.7-3.5-1c-1.4,0.8-1.7,2.9-0.5,4
				c1.2,1.1,3.2,1,4-0.5c0.1-0.2,0.2-0.5,0.4-0.7C89.4,35.9,89.4,35.3,89.2,35z"/>
		</g>
		<g id="XMLID_365_">
			<path id="XMLID_478_" class="st3" d="M394.2,401.5c-0.1-0.1-0.3-0.2-0.4-0.4c-1.5-1.5-3.9-1.5-5.4,0c-0.1,0.1-0.3,0.2-0.4,0.4
				c-1.3,1.2-1.6,3.2-0.9,4.8c0.6,1.5,2.3,2.8,4,2.7c1.5-0.1,3-0.8,3.8-2.2C395.8,405.1,395.6,402.9,394.2,401.5z"/>
			<path id="XMLID_477_" class="st3" d="M219.5,412.1c0.1,0.5,0.1,1,0.2,1.5c0.1,0.6,0.8,0.6,0.9,0c0.1-0.5,0.1-1,0.2-1.5
				C220.8,411.3,219.4,411.3,219.5,412.1z"/>
			<path id="XMLID_475_" class="st3" d="M238.1,459.7c-0.7,0.1-1.4,0.1-2,0.4c-1.1,0.6-1.1,2.4,0,3c0.6,0.3,1.3,0.3,2,0.4
				c1,0.1,2-0.9,1.9-1.9C240,460.6,239.2,459.6,238.1,459.7z"/>
			<path id="XMLID_474_" class="st3" d="M49.1,462.4c-2.8,0-2.8,4.4,0,4.4C51.9,466.8,51.9,462.4,49.1,462.4z"/>
			<path id="XMLID_473_" class="st3" d="M116.6,200.5c-2.1,0-2.1,3.3,0,3.3C118.7,203.7,118.7,200.5,116.6,200.5z"/>
			<path id="XMLID_472_" class="st3" d="M53.6,230.2c-2.4,0-2.4,3.8,0,3.8C56,234,56,230.2,53.6,230.2z"/>
			<path id="XMLID_471_" class="st3" d="M298.7,218c-1.3-1.2-3-1.4-4.5-0.6c-0.8,0.4-1.5,1.4-1.7,2.2c-0.1,0.4-0.1,0.9-0.1,1.3
				c-0.2,0.9,0.1,2,0.8,2.6c0.7,0.6,1.7,1,2.6,0.8c0.5,0.1,0.9,0,1.3-0.1c0.8-0.3,1.4-0.7,1.9-1.3
				C300.1,221.5,300.1,219.3,298.7,218z"/>
			<path id="XMLID_470_" class="st3" d="M293.6,70.6c-3.2,0-3.2,4.9,0,4.9C296.8,75.6,296.8,70.6,293.6,70.6z"/>
			<path id="XMLID_468_" class="st3" d="M169.1,84.2c-3.1,0-3.1,4.8,0,4.8C172.2,89,172.2,84.2,169.1,84.2z"/>
			<path id="XMLID_443_" class="st3" d="M164.6,129.8c-0.4,0-0.9,0.1-1.3,0.1c-0.9,0.1-1.7,0.7-1.7,1.7c0,1,0.7,1.6,1.7,1.7
				c0.4,0,0.9,0.1,1.3,0.1c0.9,0.1,1.8-0.9,1.8-1.8C166.3,130.7,165.6,129.8,164.6,129.8z"/>
			<path id="XMLID_442_" class="st3" d="M563.6,33.5c-2.7,0-2.7,4.3,0,4.3C566.3,37.7,566.3,33.5,563.6,33.5z"/>
			<path id="XMLID_432_" class="st3" d="M481.1,94.9c-0.7-0.1-1.4-0.1-2.1,0c-1,0.2-1.7,1.3-1.7,2.2c0,0.9,0.7,2.1,1.7,2.2
				c0.7,0.1,1.4,0.1,2.1,0c1.2-0.1,2.3-1,2.2-2.2C483.3,95.8,482.3,95,481.1,94.9z"/>
			<path id="XMLID_427_" class="st3" d="M77.6,591.1c-5.1,0-5.1,8,0,8C82.7,599.1,82.7,591.1,77.6,591.1z"/>
			<path id="XMLID_424_" class="st3" d="M97.1,650.3c-2.3,0-2.3,3.5,0,3.5C99.4,653.8,99.4,650.3,97.1,650.3z"/>
			<path id="XMLID_404_" class="st3" d="M64.1,690.4c-0.9,0-0.9,1.4,0,1.4C65,691.8,65,690.4,64.1,690.4z"/>
			<path id="XMLID_392_" class="st3" d="M23.9,593.6c0-0.9-0.8-1.8-1.8-1.8c-0.9,0-1.8,0.8-1.8,1.8c0,0.7,0.3,1.1,0.8,1.4
				c0,0,0,0.1,0,0.1c0.1,1.3,1.9,1.3,2,0c0,0,0,0,0-0.1C23.6,594.7,23.9,594.2,23.9,593.6z"/>
			<path id="XMLID_372_" class="st3" d="M65.6,812.2c-2.5,0-2.5,3.8,0,3.8C68.1,816,68.1,812.2,65.6,812.2z"/>
			<path id="XMLID_371_" class="st3" d="M412.1,811.6c-3.2,0-3.2,4.9,0,4.9C415.3,816.5,415.3,811.6,412.1,811.6z"/>
			<path id="XMLID_370_" class="st3" d="M289.1,725c-2.6,0-2.6,4.1,0,4.1C291.7,729.1,291.7,725,289.1,725z"/>
			<path id="XMLID_369_" class="st3" d="M556.8,775.3c-0.1-0.2-0.3-0.4-0.5-0.6c0,0,0-0.1,0-0.1c-0.3-1.7-3.2-1.7-3.5,0
				c0,0,0,0.1,0,0.1c-0.6,0.6-0.9,1.3-0.8,2.2c0.2,1.2,1.3,2.3,2.6,2.3c1.2-0.1,2.1-0.8,2.5-1.9
				C557.3,776.7,557.2,775.8,556.8,775.3z"/>
			<path id="XMLID_368_" class="st3" d="M578.6,423.9c-4,0-4.1,6.3,0,6.3C582.6,430.2,582.6,423.9,578.6,423.9z"/>
			<path id="XMLID_367_" class="st3" d="M557.6,341.1c-1,0-2.1,0.9-2,2c0,0.4,0.1,0.9,0.1,1.3c0.1,1,0.8,2,1.9,1.9
				c1.1,0,1.8-0.8,1.9-1.9c0-0.4,0.1-0.9,0.1-1.3C559.7,342,558.6,341,557.6,341.1z"/>
			<path id="XMLID_366_" class="st3" d="M425.6,450.2c-3.1,0-3.1,4.9,0,4.9C428.7,455,428.7,450.2,425.6,450.2z"/>
		</g>
		<g id="XMLID_466_">
			<circle id="XMLID_487_" class="st4" cx="70.1" cy="615.8" r="137.7"/>
			<circle id="XMLID_486_" class="st4" cx="70.1" cy="615.8" r="110"/>
			<linearGradient id="XMLID_398_" gradientUnits="userSpaceOnUse" x1="75.6199" y1="506.0028" x2="65.3608" y2="711.1851">
				<stop  offset="0" style="stop-color:#FB006E"/>
				<stop  offset="1" style="stop-color:#FB006E;stop-opacity:0"/>
			</linearGradient>
			<circle id="XMLID_485_" class="st5" cx="70.1" cy="615.8" r="101.6"/>
			<g id="XMLID_467_">
				<g id="XMLID_703_">
					<linearGradient id="XMLID_429_" gradientUnits="userSpaceOnUse" x1="-29.1138" y1="571.9516" x2="169.1521" y2="571.9516">
						<stop  offset="0" style="stop-color:#FB006E"/>
						<stop  offset="1" style="stop-color:#FB006E;stop-opacity:0"/>
					</linearGradient>
					<path id="XMLID_708_" class="st6" d="M19.2,599.2c23.8-3,46.6-11.6,70.4-14.9c26.7-3.8,54.3-0.7,79.6,8.7
						c-1.6-7-3.9-13.7-6.9-20.1c-15.6-2.7-31.9-2.4-47.8-1.5c-24.8,1.4-50.1,4-74.2-2.1c-16-4-31.6-12.9-41.9-25.5
						c-13.5,13.5-23.3,30.8-27.5,50.1C-14.4,600.2,3.1,601.2,19.2,599.2z"/>
					<g id="XMLID_706_">
						<path id="XMLID_707_" class="st7" d="M66.4,671.3c-17.6-4.1-36-2.2-53.7-5.8c-14.5-2.9-28.2-9.7-39.5-19.2
							c3.6,11.6,9.3,22.3,16.6,31.7c7.3,2.9,14.9,5,22.4,6.7c18.8,4.2,38.2,6.1,56.4,12.4c10.5,3.7,20.7,9.1,28.9,16.5
							c6.5-1.8,12.7-4.2,18.5-7.2C104.6,689.1,86.7,676,66.4,671.3z"/>
					</g>
					<g id="XMLID_704_">
						<path id="XMLID_705_" class="st7" d="M119.3,596.7c-22.5,4.4-44.1,13.2-66.8,16.9c-28,4.5-57.2,0.8-83.2-10.2
							c-0.5,4.1-0.8,8.2-0.8,12.4c0,1.1,0,2.2,0.1,3.4c15,8.6,33.3,11.6,50.9,12c23.5,0.5,47.2-3,70.6,0.1
							c25.8,3.4,50.4,15.4,69.4,33.2c7.9-14.4,12.4-31,12.4-48.6c0-6-0.5-11.8-1.5-17.5C154.3,592.9,136.1,593.4,119.3,596.7z"/>
					</g>
				</g>
			</g>
		</g>
		<g id="XMLID_32_">
			<g id="XMLID_31_">
				
					<rect id="XMLID_41_" x="468" y="589" transform="matrix(0.9758 -0.2185 0.2185 0.9758 -121.1181 117.0346)" class="st8" width="1" height="34"/>
			</g>
			<circle id="XMLID_23_" class="st8" cx="464.8" cy="589.4" r="6"/>
			<g id="XMLID_36_">
				<polygon id="XMLID_38_" class="st8" points="447,726.8 446.9,725.5 452.6,669.3 460.5,670.1 				"/>
			</g>
			<g id="XMLID_39_">
				<polygon id="XMLID_40_" class="st8" points="539.5,706.1 539,704.9 509.9,656.4 503,660.6 				"/>
			</g>
			<linearGradient id="XMLID_496_" gradientUnits="userSpaceOnUse" x1="467.0759" y1="605.1956" x2="484.0759" y2="670.1956">
				<stop  offset="0" style="stop-color:#F7941E"/>
				<stop  offset="1" style="stop-color:#BE1E2D"/>
			</linearGradient>
			<path id="XMLID_11_" class="st9" d="M539.3,623.5c1.9,8.4-20.7,41-55.9,48.9c-35.2,7.9-69.1-10.1-71.4-20.4
				c-1.6-7.3,20.7-41,55.9-48.9C503,595.2,537.2,614.2,539.3,623.5z"/>
			<g id="XMLID_250_">
				<path id="XMLID_333_" class="st10" d="M413.5,655.3c7.5,10.3,38.2,24.2,69.8,17.1c33.8-7.6,56.1-38,56-47.8
					C496.7,649.6,454.7,661.1,413.5,655.3z"/>
			</g>
			
				<ellipse id="XMLID_19_" transform="matrix(-0.9758 0.2185 -0.2185 -0.9758 1066.8076 1120.4293)" class="st11" cx="471.4" cy="619.2" rx="5.9" ry="9.5"/>
			<path id="XMLID_25_" class="st11" d="M438.8,625.6c0.8-4.5,3.7-8.6,6.4-9.3s4.3,2.5,3.6,7c-0.8,4.5-3.7,8.6-6.4,9.3
				S438,630.1,438.8,625.6z"/>
			<path id="XMLID_29_" class="st11" d="M503.7,611.1c-2.6-3.7-7-6.2-9.8-5.6c-2.8,0.6-2.9,4.1-0.2,7.9c2.6,3.7,7,6.2,9.8,5.6
				C506.3,618.3,506.3,614.8,503.7,611.1z"/>
			<g id="XMLID_345_">
				<path id="XMLID_358_" class="st8" d="M472.7,629.1c-1.4,0-2.9-0.7-4.2-2.1c-1.5-1.6-2.7-3.9-3.3-6.4c-0.6-2.6-0.5-5.1,0.2-7.2
					c0.8-2.2,2.1-3.6,3.8-4c1.7-0.4,3.5,0.3,5.1,1.9c1.5,1.6,2.7,3.9,3.3,6.4c0.6,2.6,0.5,5.1-0.2,7.2c-0.8,2.2-2.1,3.6-3.8,4
					C473.3,629.1,473,629.1,472.7,629.1z M470.2,610.3c-0.2,0-0.5,0-0.7,0.1c-1.4,0.3-2.5,1.5-3.1,3.3c-0.7,1.9-0.7,4.3-0.2,6.7
					c0.5,2.4,1.6,4.5,3,6c1.4,1.4,2.9,2,4.2,1.7c1.4-0.3,2.5-1.5,3.1-3.3c0.7-1.9,0.7-4.3,0.2-6.7c-0.5-2.4-1.6-4.5-3-6
					C472.6,610.9,471.3,610.3,470.2,610.3z"/>
			</g>
			<g id="XMLID_338_">
				<path id="XMLID_352_" class="st8" d="M441.6,633.2c-0.8,0-1.5-0.3-2.1-0.8c-1.3-1.3-1.8-3.8-1.3-6.8c0.8-4.7,3.8-9,6.8-9.7
					c1.1-0.2,2.1,0,2.9,0.8c1.3,1.3,1.8,3.8,1.3,6.8c-0.8,4.7-3.8,9-6.8,9.7C442.2,633.2,441.9,633.2,441.6,633.2z M445.9,616.8
					c-0.2,0-0.4,0-0.6,0.1c-2.6,0.6-5.3,4.5-6,8.9c-0.5,2.6-0.1,4.9,1,5.9c0.5,0.5,1.2,0.7,2,0.5c2.5-0.6,5.3-4.6,6-8.9
					c0.5-2.6,0.1-4.9-1-5.9C446.9,617,446.4,616.8,445.9,616.8z"/>
			</g>
			<g id="XMLID_1_">
				<path id="XMLID_341_" class="st8" d="M502.6,619.5c-2.9,0-6.8-2.4-9.3-5.9c-1.8-2.5-2.4-5-1.7-6.7c0.4-1,1.2-1.7,2.3-1.9
					c3-0.7,7.5,1.9,10.3,5.8c1.8,2.5,2.4,5,1.8,6.7c-0.4,1-1.2,1.7-2.3,1.9C503.3,619.5,503,619.5,502.6,619.5z M494.8,605.8
					c-0.3,0-0.5,0-0.8,0.1c-0.8,0.2-1.3,0.6-1.6,1.3c-0.5,1.4,0.1,3.6,1.6,5.8c2.5,3.6,6.7,6,9.2,5.4c0.8-0.2,1.3-0.6,1.6-1.3
					c0.5-1.4-0.1-3.6-1.6-5.8v0C501.1,608.2,497.4,605.8,494.8,605.8z"/>
			</g>
		</g>
		<g id="XMLID_330_">
			<g id="XMLID_51_">
				<g id="XMLID_5_">
					<path id="XMLID_6_" class="st12" d="M0,631v210.9h595.3V631c-57.1,50.7-169,85.1-297.6,85.1S57.1,681.7,0,631z"/>
				</g>
				<g id="XMLID_111_">
					<path id="XMLID_114_" class="st12" d="M301.4,831.7c-0.8-1.2-1.3-2.3-2.3-3.3c-1.8-1.8-3.3-2.2-5.7-2.8
						c-10-2.2-20.4,1.2-30.3-2.1c-4.7-1.6-9-4.6-13.9-5.6c-5.1-1-11.2,0.9-16.1-0.9c-5-1.8-4.2-4.7-8-7.6
						c-4.2-3.2-14.6-4.2-19.7-5.1c-4-0.7-8.2-0.3-12.3-0.1c-11,0.4-22-0.9-33-0.9c-4.5,0-9.1,0-13.6,0c-12.2,0-21.7-0.8-33.6-3.8
						c-0.9-0.2-2-0.4-2.5,0.4c-0.4,0.6-0.2,1.5,0.2,2.2c2.4,3.9,8.3,3.6,12.2,4.7c3,0.9,6.1,0.8,9.2,1.8c5.5,1.8,12.2,2.3,17.8,0.5
						c2.4-0.8,5.3-0.9,7.5,0.2c2.5,1.2,1.5,2,0.7,4c-2.9,6.9-14.3,8.4-20.6,11c-1.3,0.6-2,1.4-3,2.4c-1.8,1.7-4.1,3.4-6.4,4.3
						c-10.2,4-21.1,3.4-31.2,8.1c-2.6,1.2-5,2.1-7.5,2.8h240.6C321.4,836.8,307.7,840.8,301.4,831.7z"/>
					<path id="XMLID_115_" class="st12" d="M244.3,720.6c4.4,0.9,9,0.5,13.3,1.5c5.8,1.4,11.8,2.7,17.5,4.6c2,0.7,4.5,2.3,3.8,4.3
						c-0.3,0.9-1.2,1.5-1.3,2.5c-0.2,1.5,1.5,2.5,2.9,3c5.4,2,11,3.5,16.3,5.6c2.2,0.9,4.4,1.6,6.5,2.5c2.1,0.9,3.7,2.7,5.3,4.3
						c1.1,1.1,2.6,3.1,1.6,4.9c-3.1,5.1-16.1,3.6-20.9,3.5c-10.4-0.1-19.4,0.7-29.7,2.4c-11.1,1.8-20,10.3-31.7,12.2
						c-7.3,1.2-14.8,1-22.1,1.9c-11.5,1.3-23.4,7.4-33.4,13.1c-7.4,4.3,3.1,5.4,6.9,6c9.1,1.3,18.3-0.2,27.4-0.3
						c10.9-0.1,21.4,6.3,32.1,5c2.3-0.3,4.7-1,7-0.6c6.3,1,10.1,5.8,16.8,6.4c9.8,0.9,19.7-0.9,29.4-1.3c1.3-0.1,2.7-0.1,3.9,0.2
						c1.7,0.5,3.2,1.7,4.8,2.6c2.6,1.5,22.3,5.9,20.1,10c-0.8,1.4-5.8,1.7-7.3,1.7c-2.1,0-4,0.4-6.1,0.6c-1.6,0.1-3.4-0.4-4.8,0.5
						c-1.8,1.2-1.4,3.1,0.3,4.2c3.2,2.1,9.6,0.1,13.3,0.5c6.3,0.7,12.1,3.9,18.5,3.6c8-0.3,14.8,1.6,22.7,1.1c2.9-0.2,6-1,8.9-1.6
						c2-0.4,3.9-1.2,5.8-1.6c1.3-0.3,2.7-0.3,3.9-0.7c12.2-4.6-9.5-5.3-13-5.5c-1-0.1-1.9-0.1-2.8-0.6c-0.8-0.4-1.5-1.2-2.2-1.8
						c-4.7-3.8-11.9-1.2-17.4-2.9c-3-0.9-7.3-0.8-7.9-4.7c-0.1-0.8,0.3-1.6,0-2.3c-2.4-7.9-33-4.5-32.7-10c0.1-1.7,3.1-3,4.4-3.4
						c3.5-1,7.8-0.3,11.4-0.3c9.1,0,18.1-1.5,27.1-1.4c13.3,0.2,29.2-1.9,40.4-9.3c1.1-0.8,3.4-1.6,4-2.7c0.5-0.9,0-3-0.6-3.8
						c-2.9-4.3-12.6-2.9-17.1-3.3c-11.6-1.1-25.5-2.9-36.7-6.2c-8.4-2.5-6.6-5,0.4-7.2c7.9-2.5,17-1.3,23.8-6.6
						c7.7-5.9,18.1-2.6,26.1-9.9c0.7-0.7,1.9-1.4,2.3-2.3c1.8-3.7-7.6-3.4-9.5-3.3c-3.8,0.2-41.7,8.6-40.2,0.5
						c0.5-2.6,6-2.1,7.9-2.4c6.8-1,13.4-2.5,20-4c5.8-1.4,12.4-1.9,17.7-4.7c1.8-1,3.1-2.5,5-3.3c2.2-0.9,4.6-1.3,6.9-1.9
						c7.9-2.2,15.6-7.2,23.5-10.3c7.8-3.1,15.8-5.6,23.5-8.9c-43.5,9.8-92,15.2-143.2,15.2c-29.7,0-58.5-1.8-86-5.3
						c4.2,2.4,8.4,4.8,12.8,6.5C231.1,719.9,237.6,719.3,244.3,720.6z"/>
					<path id="XMLID_118_" class="st13" d="M595.3,631c-34.4,30.5-88.6,55.1-154.5,69.9c-7.7,3.3-15.7,5.9-23.5,8.9
						c-7.9,3.1-15.6,8.1-23.5,10.3c-2.3,0.6-4.7,1-6.9,1.9c-1.9,0.8-3.2,2.3-5,3.3c-5.3,2.8-11.9,3.3-17.7,4.7c-6.6,1.6-13.3,3-20,4
						c-1.8,0.3-7.4-0.2-7.9,2.4c-1.4,8.2,36.4-0.3,40.2-0.5c1.9-0.1,11.3-0.4,9.5,3.3c-0.5,0.9-1.6,1.6-2.3,2.3
						c-8,7.3-18.4,4-26.1,9.9c-6.9,5.3-15.9,4.2-23.8,6.6c-7,2.2-8.8,4.7-0.4,7.2c11.2,3.3,25,5,36.7,6.2c4.5,0.4,14.2-1,17.1,3.3
						c0.5,0.8,1,2.9,0.6,3.8c-0.6,1.1-2.8,1.9-4,2.7c-11.2,7.4-27.1,9.5-40.4,9.3c-9-0.1-18,1.4-27.1,1.4c-3.6,0-7.9-0.6-11.4,0.3
						c-1.2,0.3-4.3,1.7-4.4,3.4c-0.3,5.5,30.2,2.1,32.7,10c0.2,0.7-0.2,1.6,0,2.3c0.6,3.8,4.9,3.7,7.9,4.7
						c5.5,1.7,12.7-0.9,17.4,2.9c0.7,0.6,1.4,1.4,2.2,1.8c0.9,0.4,1.8,0.5,2.8,0.6c3.5,0.2,25.1,0.8,13,5.5
						c-1.3,0.5-2.6,0.5-3.9,0.7c-2,0.4-3.9,1.1-5.8,1.6c-2.9,0.6-5.9,1.4-8.9,1.6c-7.9,0.4-14.7-1.4-22.7-1.1
						c-6.4,0.2-12.2-2.9-18.5-3.6c-3.7-0.4-10.1,1.6-13.3-0.5c-1.7-1.1-2.1-3.1-0.3-4.2c1.4-0.9,3.2-0.4,4.8-0.5
						c2.1-0.2,4-0.6,6.1-0.6c1.4,0,6.5-0.3,7.3-1.7c2.2-4.1-17.6-8.5-20.1-10c-1.6-0.9-3-2.1-4.8-2.6c-1.3-0.4-2.6-0.3-3.9-0.2
						c-9.8,0.4-19.6,2.2-29.4,1.3c-6.7-0.6-10.5-5.4-16.8-6.4c-2.3-0.4-4.7,0.3-7,0.6c-10.7,1.3-21.2-5.1-32.1-5
						c-9.2,0.1-18.3,1.5-27.4,0.3c-3.9-0.5-14.4-1.7-6.9-6c9.9-5.7,21.9-11.8,33.4-13.1c7.4-0.8,14.8-0.7,22.1-1.9
						c11.6-1.9,20.5-10.4,31.7-12.2c10.3-1.7,19.3-2.5,29.7-2.4c4.8,0,17.8,1.5,20.9-3.5c1-1.7-0.5-3.8-1.6-4.9
						c-1.6-1.6-3.2-3.3-5.3-4.3c-2.1-0.9-4.3-1.7-6.5-2.5c-5.3-2.1-10.9-3.6-16.3-5.6c-1.4-0.5-3.1-1.5-2.9-3c0.1-0.9,1-1.6,1.3-2.5
						c0.7-2-1.8-3.7-3.8-4.3c-5.7-1.9-11.7-3.2-17.5-4.6c-4.3-1.1-8.9-0.7-13.3-1.5c-6.7-1.3-13.2-0.7-19.9-3.3
						c-4.5-1.7-8.7-4.1-12.8-6.5C120.2,699.4,43.9,670,0,631v210.9h89.3c2.4-0.7,4.9-1.6,7.5-2.8c10.1-4.7,21-4.1,31.2-8.1
						c2.3-0.9,4.6-2.6,6.4-4.3c1-1,1.7-1.8,3-2.4c6.3-2.6,17.7-4.1,20.6-11c0.8-2,1.8-2.8-0.7-4c-2.3-1.1-5.1-0.9-7.5-0.2
						c-5.6,1.8-12.3,1.3-17.8-0.5c-3.1-1-6.2-1-9.2-1.8c-3.9-1.1-9.8-0.9-12.2-4.7c-0.4-0.7-0.7-1.5-0.2-2.2
						c0.5-0.7,1.6-0.6,2.5-0.4c11.9,3,21.4,3.8,33.6,3.8c4.5,0,9.1,0,13.6,0c11,0,22,1.3,33,0.9c4.1-0.2,8.2-0.6,12.3,0.1
						c5.1,0.8,15.5,1.9,19.7,5.1c3.8,2.9,2.9,5.7,8,7.6c4.9,1.8,11-0.2,16.1,0.9c4.9,1,9.2,4,13.9,5.6c9.9,3.3,20.3-0.1,30.3,2.1
						c2.4,0.5,4,1,5.7,2.8c1,1,1.5,2.2,2.3,3.3c6.3,9.1,20,5.2,28.4,10.2h265.4V631z"/>
				</g>
				<g id="XMLID_47_">
					<g id="XMLID_87_">
						<path id="XMLID_89_" class="st14" d="M595.3,631c-25.6,22.7-62.1,42.1-106.3,56.7c-1.9,1.6-3.8,3.1-5.6,4.6
							c-9,7.5-18.8,14.7-29.8,19c-8.4,3.3-17.4,5.5-26.1,8.2c-3.2,1-5.9,1.9-8.6,3.7c-2,1.4-3.9,2.9-6.1,4.1
							c-3.5,1.9-7.2,3.3-11.2,3.8c-1.1,0.1-2.2,0.2-3.1,0.8c-2,1.1-4.5,4.6-1.6,5.9c1.9,0.9,4.8,0.9,6.8,1.3c1.2,0.2,2,0.2,3.3,0
							c5.3-0.9,9.5-2,14.8,0.1c7.8,3,12.1,1.3,20.1,1.4c2.7,0,6.5-0.6,6.7,3.3c0.2,3.3-4.7,5.3-1.9,8.7c0.8,1,2.4,1.6,3.7,2
							c1.5,0.5,4.1,0.2,5.4,1.3c1.9,1.5,0.1,3.5-1.3,4.5c-3.2,2.4-6.2,2.5-10.1,3c-8.8,1-19-0.4-27.5,1.8c-1.9,0.5-3.5,1.3-5.2,2.2
							c-0.3,0.1-3.7,1.5-3.9,2c-0.9,1.6,1.2,2.7,2.3,3.2c1.7,0.8,12.6,0.5,10.8,4c-0.4,0.8-3.2,1.7-3.9,2.1c-1.8,1-3.5,1.9-5.5,2.5
							c-11,3.6-23.7,3.7-33.8,9c-3,1.6-6,3.2-9.3,4.1c-1.3,0.4-2.6,0.8-4,0.8c-1.1,0.1-2.3-0.3-3.3-0.1c-1.1,0.2-1.8,0.8-2.8,1.2
							c-0.9,0.4-2.3,0.4-3.1,0.9c-0.7,0.5-2.4,2.2-2.1,3c0.7,1.7,5.1,2.1,6.5,2.4c15.5,3.3,37.5,1.3,53-1.4c2.2-0.4,4.4,0.2,6.5-0.3
							c0.9-0.2,1.8-0.6,2.7-0.6c1.8,0,4.4,0.8,6,1.6c1.3,0.6,1.8,1.5,0.9,2.9c-1,1.5-2.9,1.4-4.5,1.8c-1.8,0.4-3.9,1.1-5.3,2.3
							c-0.5,0.4-1.9,1.7-1.8,2.2c0.3,1.1,5.2,1.7,6.1,1.9c1.8,0.3,3.5,0.1,5.3,0.2c3.7,0,7.7-0.4,11.2,0.6c1.5,0.4,2.4,1.8,4.1,2.1
							c1.1,0.2,2.3-0.1,3.4,0.1c0.6,0.1,1.4,0.4,2,0.5c6.3,1.5,13.8-1.3,20.2-1.3c2.4,0,6.9-1.1,6.3,2.7c-0.2,1.4-0.7,1.6-2,2.5
							c-1.6,1.1-2.4,1.3-4.1,1.6c-1,0.2-1.7,0.8-2.7,1.1c-1,0.3-1.9,0.1-2.9,0.3c-0.2,0-1.3,0.4-1.6,0.5c-0.9,0.3-1.8,0.4-2.7,0.7
							c-3.7,1-7.1,2.5-11.1,2.7c-6.8,0.4-12.4-0.7-18.9,2.3c-4.2,2-8,4.6-12.3,6.3c-12.6,5.1-26.3-0.4-38.6,4.8
							c-1.2,0.5-2.3,0.8-3.5,1.1h219.9V631z"/>
						<path id="XMLID_88_" class="st14" d="M44.2,834.4c2.9-0.8,5.9-1.2,8.9-1.6c5.9-0.8,39.5-3,36-13.9c-0.9-2.7-3.5-4.5-6.1-5.6
							c-4.5-1.9-9.6-2.2-14.2-3.8c-9.4-3.2-28.1-13.6-13.2-21.6c5.7-3.1,12-3.3,17.3-7.5c-1.7-0.7-2.7-2.8-2.1-4.5
							c1.7-5.1,17.4-6,21.6-5.2c1.6,0.3,3,1.4,4.5,1.8c1.1,0.3,2.3,0.1,3.5,0.1c2.3,0,3.9-0.7,6.1-1.2c5.9-1.4,12.7,1.4,18.7,1.6
							c6.6,0.3,13.3-0.5,19.6-2.2c9.9-2.7,9.5-12,18.3-16.2c2.7-1.3,6-1.9,8.9-2.7c1.8-0.4,5.4-0.5,6.8-1.8c1-1,0.4-2.2,0.6-3.5
							c0.4-3.3,6.5-2.6,9.1-2.7c2.6,0,4.9,0.1,7.5,0.5c1.3,0.2,2.5,0.1,3.7,0.2c1.1,0.1,2.3,0.7,3.5,0.7c8.6-0.3,14-1.1,22.9,0.6
							c3.5,0.7,16.2,4.8,19.1,1.4c1.9-2.2-0.4-5.4-2.4-6.2c-1.9-0.8-4-1-6-1.8c-10.8-4.3-25.6-3.8-37.2-5.9
							c-12.3-2.2-24.8-5-35.8-11.1c-2.5-1.4-5.1-2.4-7.7-3.7c-4.9-2.5-11.3-2.5-16.6-4.3c-6.1-2.1-12.2-4.5-18.2-6.7
							c-1.4-0.5-2.9-1.1-3.9-2.1c-7.5-7.5,11.7-3.5,13.4-3.5c2.6,0,4.9,0.7,7.5,0.7c1.7,0,2.8,0.2,4.4,0.5c1.4,0.3,2.8,0,4.2,0.6
							c1.5,0.7,2.2,1.8,3.8,2.4c1,0.4,1.6,0.5,2.8,0.5c11.3-0.1,22.5,2.6,34,2.2c2.3-0.1,4.5-0.2,6.8-0.4
							C110.7,695.6,41.1,667.5,0,631v210.9h21.3c5.1-1.4,10.1-3,14.9-4.7C38.9,836.2,41.5,835.1,44.2,834.4z"/>
					</g>
				</g>
				<g id="XMLID_101_">
					<path id="XMLID_178_" class="st12" d="M146.9,790.4c-0.1,3,9.4,5.7,21.3,6l0.3-10.8C156.6,785.3,147,787.4,146.9,790.4z"/>
					<path id="XMLID_152_" class="st15" d="M168.5,785.6C168.5,785.6,168.5,785.6,168.5,785.6l-0.3,10.8c0,0,0,0,0,0
						c11.8,0.3,21.5-1.9,21.6-4.9C189.9,788.5,180.4,785.9,168.5,785.6z"/>
					
						<ellipse id="XMLID_105_" transform="matrix(-0.9997 -2.590622e-002 2.590622e-002 -0.9997 316.1835 1586.0981)" class="st15" cx="168.4" cy="791" rx="20.2" ry="5.4"/>
					<path id="XMLID_104_" class="st12" d="M188.6,791.5c-0.1,2.9-8.6,5-19.3,4.9l0.3-10.8C180.2,786.1,188.6,788.6,188.6,791.5z"/>
					
						<ellipse id="XMLID_103_" transform="matrix(-0.9997 -2.590622e-002 2.590622e-002 -0.9997 321.1901 1586.2927)" class="st13" cx="170.9" cy="791.1" rx="13.1" ry="5.4"/>
				</g>
			</g>
			<g id="XMLID_182_">
				<g id="XMLID_30_">
					<path id="XMLID_110_" class="st13" d="M36.8,727.8c-1,6,17.5,14.2,41.4,18.2l3.7-21.8C58,720.2,37.8,721.8,36.8,727.8z"/>
					<path id="XMLID_121_" class="st16" d="M82,724.2C82,724.2,81.9,724.2,82,724.2L78.2,746c0,0,0.1,0,0.1,0
						c23.9,4,44.1,2.4,45.2-3.6C124.5,736.4,105.9,728.3,82,724.2z"/>
					
						<ellipse id="XMLID_3_" transform="matrix(-0.986 -0.1667 0.1667 -0.986 36.5853 1473.4741)" class="st16" cx="80.1" cy="735.2" rx="41.4" ry="11"/>
					<path id="XMLID_122_" class="st13" d="M120.9,742.1c-1,5.8-18.9,7.7-40.5,4.3l3.7-21.7C105.6,728.6,121.9,736.3,120.9,742.1z"
						/>
					
						<ellipse id="XMLID_27_" transform="matrix(-0.986 -0.1667 0.1667 -0.986 46.4852 1476.0146)" class="st15" cx="85.2" cy="736.1" rx="26.8" ry="11"/>
				</g>
				<g id="XMLID_179_">
					<path id="XMLID_198_" class="st13" d="M173.6,831.8c0,6.1,19.6,11,43.8,11l0-22.2C193.2,820.7,173.6,825.7,173.6,831.8z"/>
					<path id="XMLID_191_" class="st15" d="M217.5,820.6C217.5,820.6,217.5,820.6,217.5,820.6l-0.1,22.2c0,0,0.1,0,0.1,0
						c24.3,0,43.9-5,43.9-11.1C261.5,825.6,241.8,820.6,217.5,820.6z"/>
					
						<ellipse id="XMLID_187_" transform="matrix(-1 1.033076e-003 -1.033076e-003 -1 435.956 1663.3577)" class="st15" cx="217.5" cy="831.8" rx="41.4" ry="11"/>
					<path id="XMLID_184_" class="st12" d="M258.9,831.7c0,5.9-17.4,10.7-39.2,11.1l0-22C241.5,821.1,258.9,825.9,258.9,831.7z"/>
					
						<ellipse id="XMLID_180_" transform="matrix(-1 1.033076e-003 -1.033076e-003 -1 446.2126 1663.3418)" class="st13" cx="222.7" cy="831.8" rx="26.8" ry="11"/>
				</g>
				<g id="XMLID_219_">
					<path id="XMLID_248_" class="st12" d="M379.1,746.8c0.5,4.8,16.2,6.9,35.1,4.8l-1.9-17.3C393.4,736.4,378.6,742,379.1,746.8z"
						/>
					<path id="XMLID_241_" class="st15" d="M412.4,734.3C412.3,734.3,412.3,734.3,412.4,734.3l1.8,17.3c0,0,0,0,0.1,0
						c18.9-2.1,33.8-7.7,33.3-12.4C447,734.4,431.3,732.2,412.4,734.3z"/>
					
						<ellipse id="XMLID_237_" transform="matrix(-0.9939 0.1105 -0.1105 -0.9939 906.2511 1435.7646)" class="st15" cx="413.3" cy="743" rx="32.4" ry="8.6"/>
					<path id="XMLID_229_" class="st12" d="M445.6,739.4c0.5,4.6-12.6,9.9-29.6,12l-1.9-17.2C431.1,732.6,445,734.8,445.6,739.4z"/>
					
						<ellipse id="XMLID_220_" transform="matrix(-0.9939 0.1105 -0.1105 -0.9939 914.1671 1434.4371)" class="st13" cx="417.3" cy="742.6" rx="21" ry="8.6"/>
				</g>
				<g id="XMLID_189_">
					<path id="XMLID_208_" class="st13" d="M309.1,781.3c0,4.6,14.7,8.3,32.8,8.2l0-16.6C323.7,773,309.1,776.7,309.1,781.3z"/>
					<path id="XMLID_201_" class="st15" d="M341.9,772.9C341.9,772.9,341.9,772.9,341.9,772.9l-0.1,16.6c0,0,0,0,0.1,0
						c18.1,0,32.8-3.7,32.8-8.3C374.7,776.6,360,772.9,341.9,772.9z"/>
					
						<ellipse id="XMLID_197_" transform="matrix(-1 1.033076e-003 -1.033076e-003 -1 684.6279 1562.2152)" class="st15" cx="341.9" cy="781.3" rx="30.9" ry="8.2"/>
					<path id="XMLID_193_" class="st12" d="M372.8,781.3c0,4.4-13,8-29.3,8.3l0-16.5C359.8,773.3,372.8,776.8,372.8,781.3z"/>
					
						<ellipse id="XMLID_190_" transform="matrix(-1 1.033076e-003 -1.033076e-003 -1 692.2958 1562.2034)" class="st13" cx="345.7" cy="781.3" rx="20.1" ry="8.2"/>
				</g>
				<g id="XMLID_33_">
					<path id="XMLID_84_" class="st13" d="M500,759.6c2.2,7.9,29.4,7.3,60.9-1.3l-8-28.8C521.5,738.2,497.8,751.6,500,759.6z"/>
					<path id="XMLID_60_" class="st16" d="M553,729.4c0,0-0.1,0-0.1,0l8,28.8c0,0,0.1,0,0.1,0c31.5-8.7,55.2-22.2,53-30.1
						S584.5,720.7,553,729.4z"/>
					
						<ellipse id="XMLID_46_" transform="matrix(-0.9638 0.2665 -0.2665 -0.9638 1292.1141 1312.4919)" class="st16" cx="557" cy="743.9" rx="55.7" ry="14.8"/>
					<path id="XMLID_44_" class="st13" d="M610.7,729.1c2.1,7.7-18.7,20.1-47,28.4l-7.9-28.6C584.3,721.4,608.6,721.4,610.7,729.1z"
						/>
					
						<ellipse id="XMLID_43_" transform="matrix(-0.9638 0.2665 -0.2665 -0.9638 1304.6975 1307.104)" class="st15" cx="563.7" cy="742.1" rx="36.1" ry="14.8"/>
				</g>
				<g id="XMLID_57_">
					<path id="XMLID_97_" class="st13" d="M483.6,805.1c0.7,4.5,15.8,6.1,33.8,3.5l-2.4-16.5C497,794.7,483,800.5,483.6,805.1z"/>
					<path id="XMLID_90_" class="st16" d="M515.1,792.1C515.1,792.1,515.1,792.1,515.1,792.1l2.3,16.5c0,0,0,0,0.1,0
						c18.1-2.6,32.2-8.4,31.5-13C548.4,791,533.2,789.5,515.1,792.1z"/>
					
						<ellipse id="XMLID_82_" transform="matrix(-0.9896 0.1439 -0.1439 -0.9896 1142.4775 1518.1364)" class="st16" cx="516.3" cy="800.4" rx="31.1" ry="8.3"/>
					<path id="XMLID_64_" class="st13" d="M547.1,795.9c0.6,4.4-11.8,9.9-28,12.4l-2.4-16.4C533,789.8,546.5,791.5,547.1,795.9z"/>
					
						<ellipse id="XMLID_59_" transform="matrix(-0.9896 0.1439 -0.1439 -0.9896 1149.9919 1516.4828)" class="st15" cx="520.2" cy="799.8" rx="20.2" ry="8.3"/>
				</g>
				<g id="XMLID_149_">
					<path id="XMLID_188_" class="st12" d="M216.5,764.4c-0.1,2.6,8.1,4.8,18.2,5.1l0.2-9.3C224.8,760,216.5,761.9,216.5,764.4z"/>
					<path id="XMLID_181_" class="st15" d="M235,760.3C235,760.3,235,760.3,235,760.3l-0.3,9.3c0,0,0,0,0,0
						c10.2,0.3,18.5-1.6,18.5-4.2C253.4,762.8,245.2,760.5,235,760.3z"/>
					
						<ellipse id="XMLID_177_" transform="matrix(-0.9997 -2.590622e-002 2.590622e-002 -0.9997 449.8723 1535.6874)" class="st15" cx="234.9" cy="764.9" rx="17.3" ry="4.6"/>
					<path id="XMLID_155_" class="st12" d="M252.2,765.4c-0.1,2.5-7.4,4.3-16.6,4.2l0.2-9.2C245.1,760.7,252.3,762.9,252.2,765.4z"
						/>
					
						<ellipse id="XMLID_150_" transform="matrix(-0.9997 -2.590622e-002 2.590622e-002 -0.9997 454.1674 1535.8544)" class="st13" cx="237" cy="765" rx="11.2" ry="4.6"/>
				</g>
				<g id="XMLID_139_">
					<path id="XMLID_148_" class="st13" d="M525,848.4c0.9,8.9,30.2,13.2,65.4,9.6l-3.3-32.2C551.9,829.4,524.1,839.5,525,848.4z"/>
					<path id="XMLID_145_" class="st16" d="M587.3,825.8c0,0-0.1,0-0.1,0l3.3,32.2c0,0,0.1,0,0.1,0c35.3-3.6,63.2-13.8,62.2-22.7
						C651.9,826.4,622.6,822.2,587.3,825.8z"/>
					
						<ellipse id="XMLID_142_" transform="matrix(-0.9948 0.1019 -0.1019 -0.9948 1260.6116 1619.6047)" class="st16" cx="589" cy="842" rx="60.5" ry="16.1"/>
					<path id="XMLID_141_" class="st13" d="M649.1,835.8c0.9,8.6-23.7,18.2-55.4,21.9l-3.3-32C622.3,822.8,648.3,827.2,649.1,835.8z
						"/>
					
						<ellipse id="XMLID_140_" transform="matrix(-0.9948 0.1019 -0.1019 -0.9948 1275.4138 1617.321)" class="st15" cx="596.4" cy="841.2" rx="39.2" ry="16.1"/>
				</g>
				<g id="XMLID_85_">
					<path id="XMLID_107_" class="st13" d="M466.8,723.6c0.5,1.7,6.3,1.6,13.1-0.3l-1.7-6.2C471.5,719,466.4,721.9,466.8,723.6z"/>
					<path id="XMLID_100_" class="st16" d="M478.3,717.1C478.2,717.1,478.2,717.1,478.3,717.1l1.7,6.2c0,0,0,0,0,0
						c6.8-1.9,11.9-4.8,11.4-6.5S485,715.2,478.3,717.1z"/>
					
						<ellipse id="XMLID_96_" transform="matrix(-0.9638 0.2665 -0.2665 -0.9638 1132.8116 1286.67)" class="st16" cx="479.1" cy="720.2" rx="12" ry="3.2"/>
					<path id="XMLID_93_" class="st13" d="M490.7,717c0.5,1.6-4,4.3-10.1,6.1l-1.7-6.2C485,715.3,490.2,715.3,490.7,717z"/>
					
						<ellipse id="XMLID_86_" transform="matrix(-0.9638 0.2665 -0.2665 -0.9638 1135.5211 1285.5099)" class="st15" cx="480.6" cy="719.8" rx="7.8" ry="3.2"/>
				</g>
				<g id="XMLID_199_">
					<path id="XMLID_228_" class="st13" d="M317.1,735.2c0,1.8,5.7,3.2,12.7,3.2l0-6.4C322.8,732,317.1,733.5,317.1,735.2z"/>
					<path id="XMLID_221_" class="st16" d="M329.8,732C329.8,732,329.8,732,329.8,732l0,6.4c0,0,0,0,0,0c7,0,12.7-1.5,12.7-3.2
						C342.6,733.4,336.9,732,329.8,732z"/>
					
						<ellipse id="XMLID_217_" transform="matrix(-1 2.288434e-003 -2.288434e-003 -1 661.3531 1469.6869)" class="st15" cx="329.8" cy="735.2" rx="12" ry="3.2"/>
					<path id="XMLID_211_" class="st12" d="M341.8,735.2c0,1.7-5,3.1-11.4,3.2l0-6.4C336.8,732.1,341.8,733.5,341.8,735.2z"/>
					
						<ellipse id="XMLID_200_" transform="matrix(-1 2.288434e-003 -2.288434e-003 -1 664.3275 1469.6766)" class="st13" cx="331.3" cy="735.2" rx="7.8" ry="3.2"/>
				</g>
				<g id="XMLID_98_">
					<path id="XMLID_124_" class="st13" d="M544.7,697.2c0.6,2.3,8.4,2.1,17.3-0.4l-2.3-8.2C550.9,691.2,544.1,695,544.7,697.2z"/>
					<path id="XMLID_112_" class="st16" d="M559.8,688.7C559.8,688.7,559.8,688.7,559.8,688.7l2.2,8.2c0,0,0,0,0,0
						c9-2.5,15.7-6.3,15.1-8.6C576.6,686,568.8,686.2,559.8,688.7z"/>
					
						<ellipse id="XMLID_106_" transform="matrix(-0.9638 0.2665 -0.2665 -0.9638 1286.2728 1211.0416)" class="st16" cx="561" cy="692.8" rx="15.9" ry="4.2"/>
					<path id="XMLID_102_" class="st13" d="M576.3,688.6c0.6,2.2-5.3,5.7-13.4,8.1l-2.2-8.1C568.7,686.4,575.7,686.4,576.3,688.6z"
						/>
					
						<ellipse id="XMLID_99_" transform="matrix(-0.9638 0.2665 -0.2665 -0.9638 1289.8528 1209.5087)" class="st15" cx="562.9" cy="692.3" rx="10.3" ry="4.2"/>
				</g>
				<g id="XMLID_143_">
					<path id="XMLID_158_" class="st13" d="M483.7,843.2c0.2,2.3,7.8,3.7,17.1,3l-0.6-8.5C490.9,838.5,483.5,840.9,483.7,843.2z"/>
					<path id="XMLID_151_" class="st16" d="M500.2,837.8C500.2,837.8,500.1,837.8,500.2,837.8l0.6,8.5c0,0,0,0,0,0
						c9.3-0.7,16.6-3.2,16.5-5.5C517.1,838.4,509.4,837.1,500.2,837.8z"/>
					
						<ellipse id="XMLID_147_" transform="matrix(-0.9972 7.472640e-002 -7.472640e-002 -0.9972 1062.4908 1644.274)" class="st16" cx="500.5" cy="842" rx="15.9" ry="4.2"/>
					<path id="XMLID_146_" class="st13" d="M516.3,840.8c0.2,2.3-6.3,4.6-14.7,5.3l-0.6-8.4C509.3,837.2,516.1,838.6,516.3,840.8z"
						/>
					
						<ellipse id="XMLID_144_" transform="matrix(-0.9972 7.472640e-002 -7.472640e-002 -0.9972 1066.3934 1643.8344)" class="st15" cx="502.4" cy="841.9" rx="10.3" ry="4.2"/>
				</g>
				<g id="XMLID_108_">
					<path id="XMLID_137_" class="st13" d="M345.2,824.9c0,2.3,7.5,4.2,16.8,4.1l-0.1-8.5C352.7,820.6,345.2,822.6,345.2,824.9z"/>
					<path id="XMLID_127_" class="st15" d="M362,820.6C362,820.6,362,820.6,362,820.6l0,8.5c0,0,0,0,0,0c9.3-0.1,16.8-2,16.8-4.4
						C378.8,822.3,371.3,820.5,362,820.6z"/>
					
						<ellipse id="XMLID_123_" transform="matrix(-1 7.331174e-003 -7.331174e-003 -1 730.0527 1646.9869)" class="st15" cx="362" cy="824.8" rx="15.9" ry="4.2"/>
					<path id="XMLID_116_" class="st12" d="M377.9,824.7c0,2.3-6.6,4.2-15,4.3l-0.1-8.4C371.2,820.7,377.8,822.5,377.9,824.7z"/>
					
						<ellipse id="XMLID_109_" transform="matrix(-1 7.331174e-003 -7.331174e-003 -1 733.9825 1646.9437)" class="st13" cx="364" cy="824.8" rx="10.3" ry="4.2"/>
				</g>
				<g id="XMLID_159_">
					<path id="XMLID_168_" class="st13" d="M584.1,659c1.2,2,8.6,0,16.7-4.6l-4.2-7.4C588.5,651.6,582.9,657,584.1,659z"/>
					<path id="XMLID_165_" class="st16" d="M596.6,647C596.6,647,596.6,647,596.6,647l4.2,7.4c0,0,0,0,0,0c8.1-4.6,13.7-9.9,12.6-12
						C612.2,640.4,604.7,642.4,596.6,647z"/>
					
						<ellipse id="XMLID_162_" transform="matrix(-0.8701 0.4928 -0.4928 -0.8701 1440.4265 921.9188)" class="st16" cx="598.7" cy="650.7" rx="15.9" ry="4.2"/>
					<path id="XMLID_161_" class="st13" d="M612.5,642.9c1.1,2-3.8,6.9-11,11.1l-4.2-7.3C604.7,642.6,611.4,641,612.5,642.9z"/>
					
						<ellipse id="XMLID_160_" transform="matrix(-0.8701 0.4928 -0.4928 -0.8701 1443.1471 919.2653)" class="st15" cx="600.5" cy="649.8" rx="10.3" ry="4.2"/>
				</g>
				<g id="XMLID_125_">
					<path id="XMLID_238_" class="st13" d="M241.9,799.6c0,2.3,7.6,4.1,16.9,4l-0.1-8.5C249.4,795.3,241.9,797.3,241.9,799.6z"/>
					<path id="XMLID_224_" class="st16" d="M258.7,795.1C258.7,795.1,258.7,795.1,258.7,795.1l0.1,8.5c0,0,0,0,0,0
						c9.3-0.1,16.8-2.1,16.8-4.5C275.6,796.8,268,795,258.7,795.1z"/>
					
						<ellipse id="XMLID_134_" transform="matrix(-0.9999 1.397388e-002 -1.397388e-002 -0.9999 528.6785 1595.1472)" class="st15" cx="258.8" cy="799.4" rx="15.9" ry="4.2"/>
					<path id="XMLID_129_" class="st13" d="M274.6,799.2c0,2.3-6.6,4.2-15,4.4l-0.1-8.4C267.9,795.2,274.6,796.9,274.6,799.2z"/>
					
						<ellipse id="XMLID_126_" transform="matrix(-0.9999 1.397388e-002 -1.397388e-002 -0.9999 532.6076 1595.0648)" class="st13" cx="260.7" cy="799.4" rx="10.3" ry="4.2"/>
				</g>
				<g id="XMLID_12_">
					<path id="XMLID_52_" class="st13" d="M-12.7,748c-0.5,3.9,11.6,8.6,27.1,10.6l1.8-14.1C0.7,742.5-12.2,744.1-12.7,748z"/>
					<path id="XMLID_26_" class="st16" d="M16.2,744.5C16.2,744.5,16.2,744.5,16.2,744.5l-1.8,14.1c0,0,0,0,0.1,0
						c15.5,2,28.4,0.4,28.9-3.5C43.9,751.2,31.7,746.4,16.2,744.5z"/>
					
						<ellipse id="XMLID_18_" transform="matrix(-0.9921 -0.1251 0.1251 -0.9921 -63.4878 1499.2057)" class="st16" cx="15.3" cy="751.6" rx="26.6" ry="7.1"/>
					<path id="XMLID_17_" class="st13" d="M41.7,754.9c-0.5,3.8-11.9,5.4-25.9,3.9l1.8-14C31.5,746.7,42.2,751.2,41.7,754.9z"/>
					
						<ellipse id="XMLID_14_" transform="matrix(-0.9921 -0.1251 0.1251 -0.9921 -57.022 1500.4371)" class="st15" cx="18.6" cy="752" rx="17.3" ry="7.1"/>
				</g>
				<g id="XMLID_22_">
					<path id="XMLID_63_" class="st13" d="M14.3,776.9c-0.2,2.3,7,4.9,16.1,5.7l0.8-8.3C22.1,773.4,14.5,774.6,14.3,776.9z"/>
					<path id="XMLID_56_" class="st16" d="M31.2,774.2C31.2,774.2,31.2,774.2,31.2,774.2l-0.8,8.3c0,0,0,0,0,0
						c9.1,0.9,16.7-0.3,16.9-2.6C47.6,777.7,40.4,775.1,31.2,774.2z"/>
					
						<ellipse id="XMLID_50_" transform="matrix(-0.9957 -9.297063e-002 9.297063e-002 -0.9957 -10.8197 1556.3755)" class="st16" cx="30.8" cy="778.4" rx="15.6" ry="4.2"/>
					<path id="XMLID_45_" class="st13" d="M46.4,779.9c-0.2,2.2-6.9,3.4-15.1,2.8l0.8-8.3C40.2,775.3,46.6,777.7,46.4,779.9z"/>
					
						<ellipse id="XMLID_24_" transform="matrix(-0.9957 -9.297063e-002 9.297063e-002 -0.9957 -6.9858 1556.9144)" class="st15" cx="32.8" cy="778.6" rx="10.1" ry="4.2"/>
				</g>
				<g id="XMLID_54_">
					<path id="XMLID_73_" class="st13" d="M-2.9,821.8c-0.1,1.8,5.8,3.5,13.1,3.8l0.2-6.7C3.2,818.7-2.8,820-2.9,821.8z"/>
					<path id="XMLID_66_" class="st16" d="M10.5,819C10.4,819,10.4,819,10.5,819l-0.2,6.7c0,0,0,0,0,0c7.3,0.2,13.2-1,13.3-2.9
						S17.7,819.2,10.5,819z"/>
					
						<ellipse id="XMLID_62_" transform="matrix(-0.9994 -3.338229e-002 3.338229e-002 -0.9994 -6.7783 1644.4896)" class="st16" cx="10.3" cy="822.3" rx="12.4" ry="3.3"/>
					<path id="XMLID_58_" class="st13" d="M22.8,822.7c-0.1,1.8-5.3,3-11.9,2.9l0.2-6.6C17.7,819.3,22.8,820.9,22.8,822.7z"/>
					
						<ellipse id="XMLID_55_" transform="matrix(-0.9994 -3.338229e-002 3.338229e-002 -0.9994 -3.7007 1644.6439)" class="st15" cx="11.9" cy="822.4" rx="8.1" ry="3.3"/>
				</g>
				<g id="XMLID_7_">
					<path id="XMLID_20_" class="st13" d="M14.1,683.7c-0.7,3.1,8.7,8.1,21.2,11l2.7-11.4C25.5,680.4,14.8,680.6,14.1,683.7z"/>
					<path id="XMLID_16_" class="st16" d="M38,683.4C38,683.4,38,683.4,38,683.4l-2.7,11.4c0,0,0,0,0,0c12.5,2.9,23.2,2.8,23.9-0.4
						C60,691.3,50.5,686.3,38,683.4z"/>
					
						<ellipse id="XMLID_10_" transform="matrix(-0.9732 -0.2301 0.2301 -0.9732 -86.1675 1368.1464)" class="st16" cx="36.7" cy="689.1" rx="21.9" ry="5.8"/>
					<path id="XMLID_9_" class="st13" d="M58,694.1c-0.7,3-10.2,3.4-21.5,0.9l2.7-11.3C50.3,686.5,58.7,691.1,58,694.1z"/>
					
						<ellipse id="XMLID_8_" transform="matrix(-0.9732 -0.2301 0.2301 -0.9732 -81.1062 1369.9836)" class="st15" cx="39.3" cy="689.7" rx="14.2" ry="5.8"/>
				</g>
				<g id="XMLID_28_">
					<path id="XMLID_218_" class="st12" d="M235.7,735.6c-0.1,3.2,10.3,6,23.1,6.3l0.2-11.7C246.2,730,235.8,732.4,235.7,735.6z"/>
					<path id="XMLID_203_" class="st15" d="M259,730.2C259,730.2,259,730.2,259,730.2l-0.3,11.7c0,0,0,0,0,0
						c12.8,0.2,23.3-2.2,23.3-5.4S271.9,730.4,259,730.2z"/>
					
						<ellipse id="XMLID_37_" transform="matrix(-0.9998 -1.848029e-002 1.848029e-002 -0.9998 504.1961 1476.845)" class="st15" cx="258.9" cy="736.1" rx="21.9" ry="5.8"/>
					<path id="XMLID_35_" class="st12" d="M280.8,736.5c-0.1,3.1-9.3,5.5-20.8,5.4l0.2-11.6C271.7,730.7,280.8,733.4,280.8,736.5z"
						/>
					
						<ellipse id="XMLID_34_" transform="matrix(-0.9998 -1.848029e-002 1.848029e-002 -0.9998 509.6147 1476.9952)" class="st13" cx="261.6" cy="736.1" rx="14.2" ry="5.8"/>
				</g>
			</g>
			<path id="XMLID_311_" class="st14" d="M320.1,831.7c-0.1,0.9,2.3,1.7,5.3,1.7c3,0,5.5-0.7,5.5-1.6c0.1-0.9-2.3-1.7-5.3-1.7
				C322.6,830.1,320.1,830.8,320.1,831.7z"/>
			<path id="XMLID_296_" class="st14" d="M195.8,757.3c-0.1,0.9,2.3,1.7,5.3,1.7s5.5-0.7,5.5-1.6c0.1-0.9-2.3-1.7-5.3-1.7
				C198.4,755.7,195.9,756.4,195.8,757.3z"/>
			<path id="XMLID_318_" class="st13" d="M280.8,769.5c-0.1,0.9,2.3,1.7,5.3,1.7c3,0,5.5-0.7,5.5-1.6c0.1-0.9-2.3-1.7-5.3-1.7
				C283.3,767.9,280.9,768.6,280.8,769.5z"/>
			<path id="XMLID_320_" class="st13" d="M330.7,720.2c-0.1,0.9,2.3,1.6,5.3,1.6c3,0,5.4-0.8,5.5-1.7s-2.3-1.6-5.3-1.6
				C333.2,718.6,330.8,719.3,330.7,720.2z"/>
			<path id="XMLID_322_" class="st13" d="M328.3,749.5c-0.1,0.9,2.3,1.6,5.3,1.6c3,0,5.4-0.8,5.5-1.7c0.1-0.9-2.3-1.6-5.3-1.6
				C330.8,747.9,328.4,748.6,328.3,749.5z"/>
			<path id="XMLID_321_" class="st13" d="M358.6,722.6c0,0.9,2.5,1.4,5.4,1.1c3-0.3,5.3-1.3,5.3-2.2c0-0.9-2.5-1.4-5.4-1.1
				S358.6,721.6,358.6,722.6z"/>
			<path id="XMLID_323_" class="st13" d="M292.2,783.6c-0.1,0.9,2.2,1.8,5.2,1.9s5.5-0.5,5.6-1.4c0.1-0.9-2.2-1.8-5.2-1.9
				C294.8,782.1,292.3,782.7,292.2,783.6z"/>
			<path id="XMLID_324_" class="st13" d="M286.2,836.6c-0.1,0.9,2.2,1.8,5.2,1.9s5.5-0.5,5.6-1.4c0.1-0.9-2.2-1.8-5.2-1.9
				C288.8,835,286.3,835.7,286.2,836.6z"/>
			<path id="XMLID_319_" class="st13" d="M286.2,724.1c-0.1,0.9,2.3,1.7,5.3,1.7c3,0,5.5-0.7,5.5-1.6c0.1-0.9-2.3-1.7-5.3-1.7
				C288.7,722.5,286.3,723.2,286.2,724.1z"/>
			<path id="XMLID_314_" class="st14" d="M163.9,764c-0.1,0.9,2.3,1.7,5.3,1.7s5.5-0.7,5.5-1.6s-2.3-1.7-5.3-1.7
				C166.4,762.4,163.9,763.1,163.9,764z"/>
			<path id="XMLID_313_" class="st14" d="M173.6,772.9c-0.1,0.9,2.3,1.7,5.3,1.7c3,0,5.5-0.7,5.5-1.6c0.1-0.9-2.3-1.7-5.3-1.7
				S173.7,772,173.6,772.9z"/>
			<path id="XMLID_317_" class="st13" d="M241.9,785.4c-0.1,0.9,2.3,1.7,5.3,1.7c3,0,5.5-0.7,5.5-1.6s-2.3-1.7-5.3-1.7
				C244.5,783.8,242,784.5,241.9,785.4z"/>
			<path id="XMLID_325_" class="st13" d="M141.5,838.4c-0.1,0.9,2.3,1.7,5.3,1.7c3,0,5.5-0.7,5.5-1.6c0.1-0.9-2.3-1.7-5.3-1.7
				S141.6,837.5,141.5,838.4z"/>
			<path id="XMLID_326_" class="st13" d="M182.3,817.2c-0.1,0.9,2.3,1.7,5.3,1.7c3,0,5.5-0.7,5.5-1.6c0.1-0.9-2.3-1.7-5.3-1.7
				S182.3,816.3,182.3,817.2z"/>
			<path id="XMLID_295_" class="st14" d="M195.8,801c-0.1,0.9,2.3,1.7,5.3,1.7s5.5-0.7,5.5-1.6c0.1-0.9-2.3-1.7-5.3-1.7
				C198.4,799.4,195.9,800.1,195.8,801z"/>
			<path id="XMLID_316_" class="st14" d="M69.9,837.5c-0.1,0.9,2.3,1.7,5.3,1.7c3,0,5.5-0.7,5.5-1.6c0.1-0.9-2.3-1.7-5.3-1.7
				C72.5,835.9,70,836.6,69.9,837.5z"/>
			<path id="XMLID_315_" class="st14" d="M123.5,818.8c-0.1,0.9,2.3,1.7,5.3,1.7c3,0,5.5-0.7,5.5-1.6s-2.3-1.7-5.3-1.7
				C126,817.2,123.6,817.9,123.5,818.8z"/>
			<path id="XMLID_297_" class="st14" d="M386.2,819.3c0,0.9,2.4,1.5,5.4,1.3c3-0.2,5.4-1.1,5.4-2c0-0.9-2.4-1.5-5.4-1.3
				C388.6,817.5,386.2,818.4,386.2,819.3z"/>
			<path id="XMLID_279_" class="st14" d="M333.7,799.7c0,0.9,2.4,1.5,5.4,1.3s5.4-1.1,5.4-2s-2.4-1.5-5.4-1.3
				S333.7,798.8,333.7,799.7z"/>
			<path id="XMLID_277_" class="st14" d="M357.9,759.2c0.1,1.5,3.8,2.5,8.2,2.2c4.4-0.3,7.8-1.8,7.7-3.3c-0.1-1.5-3.8-2.5-8.2-2.2
				S357.7,757.7,357.9,759.2z"/>
			<path id="XMLID_307_" class="st14" d="M187.7,718.2c-0.2,1.5,3.1,3.3,7.5,4c4.3,0.7,8.1,0,8.3-1.5c0.2-1.5-3.1-3.3-7.5-4
				C191.6,716,187.9,716.7,187.7,718.2z"/>
			<path id="XMLID_309_" class="st14" d="M81.3,785.4c0,1.5,3.5,2.9,7.9,3.1c4.4,0.2,8-0.9,8-2.5s-3.5-2.9-7.9-3.1
				S81.4,783.8,81.3,785.4z"/>
			<g id="XMLID_328_">
				<path id="XMLID_4_" class="st16" d="M120.7,766.1c0,0.9-2.4,1.5-5.4,1.3c-3-0.2-5.4-1.1-5.4-2c0-0.9,2.4-1.5,5.4-1.3
					S120.7,765.2,120.7,766.1z"/>
				<path id="XMLID_192_" class="st16" d="M70.1,764.4c0,0.9-2.4,1.5-5.4,1.3s-5.4-1.1-5.4-2c0-0.9,2.4-1.5,5.4-1.3
					S70.1,763.5,70.1,764.4z"/>
				<path id="XMLID_262_" class="st16" d="M157.7,735.6c0,0.9-2.4,1.5-5.4,1.3c-3-0.2-5.4-1.1-5.4-2c0-0.9,2.4-1.5,5.4-1.3
					C155.3,733.7,157.7,734.6,157.7,735.6z"/>
				<path id="XMLID_183_" class="st16" d="M70.1,826c0,0.9-2.4,1.5-5.4,1.3s-5.4-1.1-5.4-2c0-0.9,2.4-1.5,5.4-1.3S70.1,825,70.1,826
					z"/>
				<path id="XMLID_259_" class="st16" d="M7.1,840.6c0,0.9-2.4,1.5-5.4,1.3s-5.4-1.1-5.4-2s2.4-1.5,5.4-1.3S7.1,839.6,7.1,840.6z"
					/>
				<path id="XMLID_53_" class="st16" d="M39.2,794c0,1-2.3,1.8-5.2,1.8s-5.2-0.8-5.2-1.8s2.3-1.8,5.2-1.8S39.2,793,39.2,794z"/>
				<path id="XMLID_257_" class="st16" d="M85.5,697.7c-0.2,1-2.7,1.3-5.5,0.7c-2.8-0.6-4.9-1.9-4.7-2.8s2.7-1.3,5.5-0.7
					S85.7,696.8,85.5,697.7z"/>
				<path id="XMLID_258_" class="st16" d="M9.7,676.1C9.3,677,6.9,677,4.2,676c-2.7-1-4.6-2.5-4.2-3.5s2.8-0.9,5.5,0.1
					C8.1,673.6,10,675.1,9.7,676.1z"/>
				<path id="XMLID_255_" class="st16" d="M4.8,649.1c-0.4,0.9-2.9,0.7-5.5-0.4s-4.4-2.8-4-3.7c0.4-0.9,2.9-0.7,5.5,0.4
					S5.2,648.2,4.8,649.1z"/>
				<path id="XMLID_256_" class="st16" d="M31.6,659.3c-0.6,1.4-4.4,1.1-8.4-0.6s-6.8-4.3-6.2-5.7s4.4-1.1,8.4,0.6
					S32.2,657.8,31.6,659.3z"/>
				<path id="XMLID_287_" class="st16" d="M551.6,779c0,0.9,2.4,1.5,5.4,1.3s5.4-1.1,5.4-2s-2.4-1.5-5.4-1.3S551.6,778.1,551.6,779z
					"/>
				<path id="XMLID_285_" class="st16" d="M455.1,792.6c0,0.9,2.4,1.5,5.4,1.3s5.4-1.1,5.4-2c0-0.9-2.4-1.5-5.4-1.3
					S455.1,791.7,455.1,792.6z"/>
				<path id="XMLID_284_" class="st16" d="M466,757.8c0,0.9,2.4,1.5,5.4,1.3c3-0.2,5.4-1.1,5.4-2c0-0.9-2.4-1.5-5.4-1.3
					S466,756.9,466,757.8z"/>
				<path id="XMLID_327_" class="st16" d="M479.5,745.1c0,0.6,1.6,0.8,3.5,0.6c1.9-0.3,3.4-0.9,3.4-1.5s-1.6-0.8-3.5-0.6
					C481,743.8,479.5,744.5,479.5,745.1z"/>
				<path id="XMLID_289_" class="st16" d="M411.9,791.3c0,0.9,2.4,1.5,5.4,1.3s5.4-1.1,5.4-2c0-0.9-2.4-1.5-5.4-1.3
					S411.9,790.4,411.9,791.3z"/>
				<path id="XMLID_280_" class="st16" d="M448.3,748.2c0,0.9,2.4,1.5,5.4,1.3s5.4-1.1,5.4-2s-2.4-1.5-5.4-1.3
					S448.3,747.3,448.3,748.2z"/>
				<path id="XMLID_281_" class="st16" d="M526.7,829.4c0,0.9,2.4,1.5,5.4,1.3s5.4-1.1,5.4-2c0-0.9-2.4-1.5-5.4-1.3
					C529.1,827.6,526.7,828.5,526.7,829.4z"/>
				<path id="XMLID_292_" class="st16" d="M455.1,838.9c0,0.9,2.4,1.5,5.4,1.3c3-0.2,5.4-1.1,5.4-2c0-0.9-2.4-1.5-5.4-1.3
					C457.5,837.1,455.1,838,455.1,838.9z"/>
				<path id="XMLID_278_" class="st16" d="M570.4,659.3c0.4,0.9,2.9,0.7,5.5-0.4c2.6-1.1,4.4-2.8,4-3.7c-0.4-0.9-2.9-0.7-5.5,0.4
					C571.8,656.7,570,658.4,570.4,659.3z"/>
				<path id="XMLID_272_" class="st16" d="M543.6,669.4c0.6,1.4,4.4,1.1,8.4-0.6c4-1.7,6.8-4.3,6.2-5.7s-4.4-1.1-8.4,0.6
					C545.8,665.5,543,668,543.6,669.4z"/>
				<path id="XMLID_275_" class="st16" d="M509.6,721.6c0.4,1.5,4.2,1.7,8.4,0.5c4.2-1.2,7.3-3.4,6.9-4.8c-0.4-1.5-4.2-1.7-8.4-0.5
					S509.2,720.1,509.6,721.6z"/>
				<path id="XMLID_244_" class="st16" d="M8.7,710.4c-0.3,0.9-2.8,0.9-5.5,0c-2.7-0.9-4.6-2.5-4.3-3.4s2.8-0.9,5.5,0
					C7.1,707.9,9,709.4,8.7,710.4z"/>
			</g>
			<g id="XMLID_329_">
				<path id="XMLID_419_" class="st13" d="M120.7,766.1c0,0,0,0,0,0.1c0,0.1,0,0.2-0.2,0.4c-0.2,0.3-0.7,0.6-1.2,0.8
					c-0.5,0.2-1.2,0.4-1.9,0.4c-0.7,0.1-1.5,0.1-2.2,0c-0.7-0.1-1.5-0.2-2.2-0.4c-0.7-0.2-1.3-0.4-1.8-0.7c-0.5-0.3-0.9-0.6-1.1-0.9
					c-0.2-0.3-0.1-0.5-0.1-0.5c0,0,0,0.2,0.3,0.4c0.2,0.2,0.6,0.4,1.2,0.5c0.5,0.1,1.1,0.3,1.8,0.4c0.7,0.1,1.4,0.2,2.1,0.2
					c1.4,0.1,2.9,0.1,3.9,0c0.5-0.1,1-0.2,1.2-0.4C120.7,766.3,120.7,766.1,120.7,766.1z"/>
				<path id="XMLID_418_" class="st13" d="M70.1,764.4c0,0,0,0,0,0.1c0,0.1,0,0.2-0.2,0.4c-0.2,0.3-0.7,0.6-1.2,0.8
					c-0.5,0.2-1.2,0.4-1.9,0.4c-0.7,0.1-1.5,0.1-2.2,0c-0.7-0.1-1.5-0.2-2.2-0.4c-0.7-0.2-1.3-0.4-1.8-0.7c-0.5-0.3-0.9-0.6-1.1-0.9
					c-0.2-0.3-0.1-0.5-0.1-0.5c0,0,0,0.2,0.3,0.4c0.2,0.2,0.6,0.4,1.2,0.5c0.5,0.1,1.1,0.3,1.8,0.4c0.7,0.1,1.4,0.2,2.1,0.2
					c1.4,0.1,2.9,0.1,3.9,0c0.5-0.1,1-0.2,1.2-0.4C70.1,764.7,70.1,764.4,70.1,764.4z"/>
				<path id="XMLID_417_" class="st13" d="M157.7,735.6c0,0,0,0,0,0.1c0,0.1,0,0.2-0.2,0.4c-0.2,0.3-0.7,0.6-1.2,0.8
					c-0.5,0.2-1.2,0.4-1.9,0.4c-0.7,0.1-1.5,0.1-2.2,0c-0.7-0.1-1.5-0.2-2.2-0.4c-0.7-0.2-1.3-0.4-1.8-0.7c-0.5-0.3-0.9-0.6-1.1-0.9
					c-0.2-0.3-0.1-0.5-0.1-0.5c0,0,0,0.2,0.3,0.4c0.2,0.2,0.6,0.4,1.2,0.5c0.5,0.1,1.1,0.3,1.8,0.4c0.7,0.1,1.4,0.2,2.1,0.2
					c1.4,0.1,2.9,0.1,3.9,0c0.5-0.1,1-0.2,1.2-0.4C157.7,735.8,157.7,735.5,157.7,735.6z"/>
				<path id="XMLID_416_" class="st13" d="M70.1,826c0,0,0,0,0,0.1c0,0.1,0,0.2-0.2,0.4c-0.2,0.3-0.7,0.6-1.2,0.8
					c-0.5,0.2-1.2,0.4-1.9,0.4c-0.7,0.1-1.5,0.1-2.2,0c-0.7-0.1-1.5-0.2-2.2-0.4c-0.7-0.2-1.3-0.4-1.8-0.7c-0.5-0.3-0.9-0.6-1.1-0.9
					c-0.2-0.3-0.1-0.5-0.1-0.5c0,0,0,0.2,0.3,0.4c0.2,0.2,0.6,0.4,1.2,0.5c0.5,0.1,1.1,0.3,1.8,0.4c0.7,0.1,1.4,0.2,2.1,0.2
					c1.4,0.1,2.9,0.1,3.9,0c0.5-0.1,1-0.2,1.2-0.4C70.1,826.2,70.1,825.9,70.1,826z"/>
				<path id="XMLID_415_" class="st13" d="M7.1,840.6c0,0,0,0,0,0.1c0,0.1,0,0.2-0.2,0.4c-0.2,0.3-0.7,0.6-1.2,0.8
					c-0.5,0.2-1.2,0.4-1.9,0.4c-0.7,0.1-1.5,0.1-2.2,0c-0.7-0.1-1.5-0.2-2.2-0.4c-0.7-0.2-1.3-0.4-1.8-0.7c-0.5-0.3-0.9-0.6-1.1-0.9
					c-0.2-0.3-0.1-0.5-0.1-0.5c0,0,0,0.2,0.3,0.4c0.2,0.2,0.6,0.4,1.2,0.5c0.5,0.1,1.1,0.3,1.8,0.4c0.7,0.1,1.4,0.2,2.1,0.2
					c1.4,0.1,2.9,0.1,3.9,0c0.5-0.1,1-0.2,1.2-0.4C7.1,840.8,7.1,840.5,7.1,840.6z"/>
				<path id="XMLID_414_" class="st13" d="M39.2,794c0,0,0,0,0,0.1c0,0.1,0,0.2-0.1,0.4c-0.2,0.3-0.5,0.7-1,0.9
					c-0.5,0.3-1.1,0.5-1.8,0.7c-0.7,0.2-1.4,0.2-2.2,0.2c-0.4,0-0.7,0-1.1,0c-0.4,0-0.7-0.1-1.1-0.2c-0.7-0.1-1.3-0.4-1.8-0.6
					c-0.5-0.3-0.9-0.6-1.1-0.9c-0.1-0.1-0.1-0.3-0.1-0.4c0-0.1,0-0.1,0-0.1s0,0,0,0.1c0,0.1,0.1,0.2,0.2,0.3
					c0.2,0.2,0.6,0.4,1.1,0.5c0.5,0.1,1.1,0.2,1.8,0.3c0.3,0,0.7,0,1,0.1c0.3,0,0.7,0,1,0c1.4,0,2.8-0.1,3.8-0.4
					c0.5-0.1,0.9-0.3,1.1-0.5c0.1-0.1,0.2-0.2,0.2-0.3C39.1,794.1,39.2,794,39.2,794z"/>
				<path id="XMLID_413_" class="st13" d="M85.5,697.7c0,0,0,0,0,0.1c0,0.1-0.1,0.2-0.2,0.4c-0.2,0.3-0.7,0.5-1.2,0.7
					c-0.6,0.2-1.2,0.2-1.9,0.2c-0.7,0-1.5-0.1-2.2-0.2c-0.4-0.1-0.7-0.2-1.1-0.3c-0.4-0.1-0.7-0.2-1-0.4c-0.6-0.3-1.2-0.6-1.7-1
					c-0.4-0.4-0.8-0.8-0.8-1.1c-0.1-0.2,0-0.3,0-0.4c0-0.1,0-0.1,0-0.1s0,0,0,0.1c0,0.1,0.1,0.2,0.1,0.3c0.2,0.2,0.5,0.5,1,0.7
					c0.5,0.2,1,0.5,1.7,0.7c0.3,0.1,0.6,0.2,1,0.3c0.3,0.1,0.7,0.2,1,0.2c1.4,0.3,2.8,0.5,3.8,0.4c0.5,0,0.9-0.1,1.2-0.3
					c0.1-0.1,0.2-0.1,0.3-0.2C85.5,697.8,85.5,697.7,85.5,697.7z"/>
				<path id="XMLID_412_" class="st13" d="M9.7,676.1c0,0,0,0,0,0.1c0,0.1-0.1,0.2-0.2,0.3c-0.3,0.2-0.7,0.4-1.3,0.5
					c-0.6,0.1-1.2,0.1-1.9,0c-0.7-0.1-1.4-0.3-2.1-0.5c-0.4-0.1-0.7-0.3-1-0.4c-0.3-0.2-0.7-0.3-1-0.5c-0.6-0.4-1.1-0.8-1.5-1.2
					c-0.4-0.4-0.6-0.9-0.7-1.2c0-0.2,0-0.3,0-0.4c0-0.1,0.1-0.1,0.1-0.1s0,0,0,0.1c0,0.1,0,0.2,0.1,0.3c0.1,0.3,0.4,0.6,0.9,0.9
					c0.4,0.3,1,0.6,1.6,0.9c0.3,0.1,0.6,0.3,0.9,0.4c0.3,0.1,0.6,0.3,1,0.4c1.3,0.5,2.7,0.8,3.7,0.9c0.5,0,0.9,0,1.2-0.1
					c0.1-0.1,0.2-0.1,0.3-0.2C9.7,676.1,9.7,676.1,9.7,676.1z"/>
				<path id="XMLID_411_" class="st13" d="M4.8,649.1c0,0,0,0,0,0.1c0,0.1-0.1,0.2-0.2,0.3c-0.3,0.2-0.8,0.4-1.3,0.4
					c-0.6,0.1-1.2,0-1.9-0.1c-0.7-0.1-1.4-0.4-2.1-0.7c-0.3-0.2-0.7-0.3-1-0.5c-0.3-0.2-0.6-0.4-0.9-0.6c-0.6-0.4-1.1-0.9-1.4-1.3
					c-0.4-0.4-0.6-0.9-0.6-1.3c0-0.2,0-0.3,0.1-0.4c0-0.1,0.1-0.1,0.1-0.1s0,0,0,0.1c0,0.1,0,0.2,0.1,0.3c0.1,0.3,0.4,0.6,0.8,0.9
					c0.4,0.3,0.9,0.6,1.5,1c0.3,0.2,0.6,0.3,0.9,0.5c0.3,0.1,0.6,0.3,1,0.4c1.3,0.6,2.6,1,3.7,1.1c0.5,0.1,0.9,0.1,1.2,0
					C4.5,649.3,4.6,649.3,4.8,649.1C4.7,649.1,4.8,649.1,4.8,649.1z"/>
				<path id="XMLID_410_" class="st13" d="M31.6,659.3c0,0,0,0.1-0.1,0.2c-0.1,0.1-0.2,0.3-0.4,0.4c-0.4,0.3-1.2,0.5-2,0.6
					c-0.9,0-1.9-0.1-2.9-0.3c-1.1-0.2-2.1-0.6-3.2-1c-0.5-0.2-1-0.5-1.5-0.7c-0.5-0.3-1-0.6-1.4-0.9c-0.9-0.6-1.7-1.3-2.2-1.9
					c-0.6-0.6-0.9-1.3-1-1.9c0-0.3,0-0.5,0.1-0.6c0.1-0.1,0.1-0.2,0.1-0.2s0,0.1,0,0.2c0,0.1,0,0.3,0.1,0.5c0.1,0.4,0.6,1,1.2,1.5
					c0.6,0.5,1.4,1.1,2.3,1.6c0.4,0.3,0.9,0.5,1.4,0.7c0.5,0.2,1,0.5,1.5,0.7c2,0.9,4.1,1.5,5.7,1.7c0.8,0.1,1.5,0,1.9-0.2
					c0.2-0.1,0.4-0.2,0.4-0.3C31.5,659.3,31.6,659.3,31.6,659.3z"/>
				<path id="XMLID_409_" class="st13" d="M551.6,779c0,0,0,0.2,0.3,0.4c0.2,0.2,0.7,0.3,1.2,0.4c1.1,0.2,2.5,0.2,3.9,0
					c0.7,0,1.4-0.1,2.1-0.2c0.7-0.1,1.3-0.2,1.8-0.4c0.5-0.1,0.9-0.3,1.2-0.5c0.2-0.2,0.3-0.4,0.3-0.4c0,0,0.1,0.2-0.1,0.5
					c-0.2,0.3-0.6,0.6-1.1,0.9c-0.5,0.3-1.1,0.5-1.8,0.7c-0.7,0.2-1.5,0.3-2.2,0.4c-0.8,0-1.5,0-2.2,0c-0.7-0.1-1.4-0.2-1.9-0.4
					c-0.5-0.2-1-0.5-1.2-0.8c-0.1-0.1-0.2-0.3-0.2-0.4C551.6,779,551.6,779,551.6,779z"/>
				<path id="XMLID_408_" class="st13" d="M455.1,792.6c0,0,0,0.2,0.3,0.4c0.2,0.2,0.7,0.3,1.2,0.4c1.1,0.2,2.5,0.2,3.9,0
					c0.7,0,1.4-0.1,2.1-0.2c0.7-0.1,1.3-0.2,1.8-0.4c0.5-0.1,0.9-0.3,1.2-0.5c0.2-0.2,0.3-0.4,0.3-0.4c0,0,0.1,0.2-0.1,0.5
					c-0.2,0.3-0.6,0.6-1.1,0.9c-0.5,0.3-1.1,0.5-1.8,0.7c-0.7,0.2-1.5,0.3-2.2,0.4c-0.8,0-1.5,0-2.2,0c-0.7-0.1-1.4-0.2-1.9-0.4
					c-0.5-0.2-1-0.5-1.2-0.8c-0.1-0.1-0.2-0.3-0.2-0.4C455.1,792.6,455.1,792.6,455.1,792.6z"/>
				<path id="XMLID_407_" class="st13" d="M466,757.8c0,0,0,0.2,0.3,0.4c0.2,0.2,0.7,0.3,1.2,0.4c1.1,0.2,2.5,0.2,3.9,0
					c0.7,0,1.4-0.1,2.1-0.2c0.7-0.1,1.3-0.2,1.8-0.4c0.5-0.1,0.9-0.3,1.2-0.5c0.2-0.2,0.3-0.4,0.3-0.4c0,0,0.1,0.2-0.1,0.5
					c-0.2,0.3-0.6,0.6-1.1,0.9c-0.5,0.3-1.1,0.5-1.8,0.7c-0.7,0.2-1.5,0.3-2.2,0.4c-0.8,0-1.5,0-2.2,0c-0.7-0.1-1.4-0.2-1.9-0.4
					c-0.5-0.2-1-0.5-1.2-0.8c-0.1-0.1-0.2-0.3-0.2-0.4C466,757.8,466,757.8,466,757.8z"/>
				<path id="XMLID_406_" class="st13" d="M479.5,745.1c0,0,0.1,0.1,0.2,0.2c0.2,0.1,0.4,0.1,0.8,0.1c0.7,0,1.6-0.1,2.5-0.2
					c0.5-0.1,0.9-0.1,1.3-0.2c0.4-0.1,0.8-0.2,1.1-0.3c0.3-0.1,0.6-0.2,0.7-0.3c0.2-0.1,0.2-0.2,0.2-0.2c0,0,0.1,0.1,0,0.4
					c-0.1,0.2-0.3,0.5-0.6,0.7c-0.3,0.2-0.7,0.4-1.1,0.6c-0.4,0.2-0.9,0.3-1.4,0.3c-0.5,0.1-1,0.1-1.5,0c-0.5,0-0.9-0.1-1.3-0.3
					c-0.4-0.1-0.7-0.3-0.8-0.5C479.4,745.2,479.5,745.1,479.5,745.1z"/>
				<path id="XMLID_343_" class="st13" d="M411.9,791.3c0,0,0,0.2,0.3,0.4c0.2,0.2,0.7,0.3,1.2,0.4c1.1,0.2,2.5,0.2,3.9,0
					c0.7,0,1.4-0.1,2.1-0.2c0.7-0.1,1.3-0.2,1.8-0.4c0.5-0.1,0.9-0.3,1.2-0.5c0.2-0.2,0.3-0.4,0.3-0.4c0,0,0.1,0.2-0.1,0.5
					c-0.2,0.3-0.6,0.6-1.1,0.9c-0.5,0.3-1.1,0.5-1.8,0.7c-0.7,0.2-1.5,0.3-2.2,0.4c-0.8,0-1.5,0-2.2,0c-0.7-0.1-1.4-0.2-1.9-0.4
					c-0.5-0.2-1-0.5-1.2-0.8c-0.1-0.1-0.2-0.3-0.2-0.4C411.9,791.4,411.9,791.3,411.9,791.3z"/>
				<path id="XMLID_342_" class="st13" d="M448.3,748.2c0,0,0,0.2,0.3,0.4c0.2,0.2,0.7,0.3,1.2,0.4c1.1,0.2,2.5,0.2,3.9,0
					c0.7,0,1.4-0.1,2.1-0.2c0.7-0.1,1.3-0.2,1.8-0.4c0.5-0.1,0.9-0.3,1.2-0.5c0.2-0.2,0.3-0.4,0.3-0.4c0,0,0.1,0.2-0.1,0.5
					c-0.2,0.3-0.6,0.6-1.1,0.9c-0.5,0.3-1.1,0.5-1.8,0.7c-0.7,0.2-1.5,0.3-2.2,0.4c-0.8,0-1.5,0-2.2,0c-0.7-0.1-1.4-0.2-1.9-0.4
					c-0.5-0.2-1-0.5-1.2-0.8c-0.1-0.1-0.2-0.3-0.2-0.4C448.3,748.2,448.3,748.2,448.3,748.2z"/>
				<path id="XMLID_340_" class="st13" d="M526.7,829.4c0,0,0,0.2,0.3,0.4c0.2,0.2,0.7,0.3,1.2,0.4c1.1,0.2,2.5,0.2,3.9,0
					c0.7,0,1.4-0.1,2.1-0.2c0.7-0.1,1.3-0.2,1.8-0.4c0.5-0.1,0.9-0.3,1.2-0.5c0.2-0.2,0.3-0.4,0.3-0.4c0,0,0.1,0.2-0.1,0.5
					c-0.2,0.3-0.6,0.6-1.1,0.9c-0.5,0.3-1.1,0.5-1.8,0.7c-0.7,0.2-1.5,0.3-2.2,0.4c-0.8,0-1.5,0-2.2,0c-0.7-0.1-1.4-0.2-1.9-0.4
					c-0.5-0.2-1-0.5-1.2-0.8c-0.1-0.1-0.2-0.3-0.2-0.4C526.7,829.5,526.7,829.4,526.7,829.4z"/>
				<path id="XMLID_339_" class="st13" d="M455.1,838.9c0,0,0,0.2,0.3,0.4c0.2,0.2,0.7,0.3,1.2,0.4c1.1,0.2,2.5,0.2,3.9,0
					c0.7,0,1.4-0.1,2.1-0.2c0.7-0.1,1.3-0.2,1.8-0.4c0.5-0.1,0.9-0.3,1.2-0.5c0.2-0.2,0.3-0.4,0.3-0.4c0,0,0.1,0.2-0.1,0.5
					c-0.2,0.3-0.6,0.6-1.1,0.9c-0.5,0.3-1.1,0.5-1.8,0.7c-0.7,0.2-1.5,0.3-2.2,0.4c-0.8,0-1.5,0-2.2,0c-0.7-0.1-1.4-0.2-1.9-0.4
					c-0.5-0.2-1-0.5-1.2-0.8c-0.1-0.1-0.2-0.3-0.2-0.4C455.1,838.9,455.1,838.9,455.1,838.9z"/>
				<path id="XMLID_336_" class="st13" d="M570.4,659.3C570.4,659.3,570.4,659.3,570.4,659.3c0.2,0.2,0.2,0.2,0.4,0.3
					c0.3,0.1,0.7,0.1,1.2,0c1-0.2,2.4-0.6,3.7-1.1c0.3-0.1,0.7-0.3,1-0.4c0.3-0.2,0.6-0.3,0.9-0.5c0.6-0.3,1.1-0.6,1.5-1
					c0.4-0.3,0.7-0.6,0.8-0.9c0.1-0.1,0.1-0.3,0.1-0.3c0-0.1,0-0.1,0-0.1s0,0,0.1,0.1c0,0.1,0.1,0.2,0.1,0.4c0,0.4-0.2,0.8-0.6,1.3
					c-0.4,0.5-0.9,0.9-1.4,1.3c-0.3,0.2-0.6,0.4-0.9,0.6c-0.3,0.2-0.7,0.3-1,0.5c-0.7,0.3-1.4,0.5-2.1,0.7c-0.7,0.1-1.4,0.2-1.9,0.1
					c-0.6,0-1.1-0.2-1.3-0.4c-0.1-0.1-0.2-0.2-0.2-0.3C570.4,659.3,570.4,659.3,570.4,659.3z"/>
				<path id="XMLID_334_" class="st13" d="M543.6,669.4c0,0,0,0.1,0.1,0.2c0.1,0.1,0.2,0.2,0.4,0.3c0.4,0.2,1.1,0.2,1.9,0.2
					c1.6-0.2,3.7-0.8,5.7-1.7c0.5-0.2,1-0.4,1.5-0.7c0.5-0.3,0.9-0.5,1.4-0.7c0.9-0.5,1.7-1.1,2.3-1.6c0.6-0.5,1.1-1.1,1.2-1.5
					c0.1-0.2,0.1-0.4,0.1-0.5c0-0.1,0-0.2,0-0.2s0,0.1,0.1,0.2c0,0.1,0.1,0.3,0.1,0.6c-0.1,0.5-0.4,1.2-1,1.9
					c-0.6,0.7-1.3,1.3-2.2,1.9c-0.4,0.3-0.9,0.6-1.4,0.9c-0.5,0.3-1,0.5-1.5,0.7c-1.1,0.4-2.1,0.8-3.2,1c-1,0.2-2.1,0.3-2.9,0.3
					c-0.9,0-1.6-0.3-2-0.6c-0.2-0.1-0.3-0.3-0.4-0.4C543.6,669.5,543.6,669.4,543.6,669.4z"/>
				<path id="XMLID_332_" class="st13" d="M509.6,721.6c0,0,0,0.1,0.1,0.2c0.1,0.1,0.2,0.2,0.4,0.4c0.4,0.2,1.1,0.4,1.9,0.4
					c1.6,0,3.8-0.3,5.9-0.9c0.5-0.1,1.1-0.3,1.6-0.5c0.5-0.2,1-0.4,1.5-0.6c0.9-0.4,1.8-0.8,2.5-1.3c0.7-0.4,1.2-0.9,1.4-1.3
					c0.1-0.2,0.2-0.4,0.2-0.5c0-0.1,0-0.2,0-0.2s0,0.1,0.1,0.2c0,0.1,0.1,0.3,0,0.6c-0.1,0.5-0.6,1.1-1.2,1.7
					c-0.6,0.6-1.5,1.1-2.5,1.6c-0.5,0.2-1,0.5-1.5,0.7c-0.5,0.2-1.1,0.4-1.6,0.5c-1.1,0.3-2.2,0.5-3.3,0.6c-1.1,0.1-2.1,0.1-2.9-0.1
					c-0.9-0.1-1.6-0.5-1.9-0.8c-0.2-0.2-0.3-0.4-0.3-0.5C509.6,721.7,509.6,721.6,509.6,721.6z"/>
				<path id="XMLID_331_" class="st13" d="M8.7,710.4c0,0,0,0,0,0.1c0,0.1-0.1,0.2-0.2,0.3c-0.3,0.2-0.7,0.4-1.3,0.5
					c-0.6,0.1-1.2,0.1-1.9,0c-0.7-0.1-1.4-0.3-2.1-0.5c-0.4-0.1-0.7-0.3-1-0.4c-0.3-0.1-0.7-0.3-1-0.5c-0.6-0.4-1.1-0.8-1.5-1.2
					c-0.4-0.4-0.6-0.9-0.7-1.2c0-0.2,0-0.3,0-0.4c0-0.1,0.1-0.1,0.1-0.1s0,0,0,0.1c0,0.1,0,0.2,0.1,0.3c0.1,0.3,0.4,0.6,0.9,0.8
					c0.4,0.3,1,0.6,1.6,0.9c0.3,0.1,0.6,0.3,0.9,0.4c0.3,0.1,0.6,0.3,1,0.4c1.3,0.5,2.7,0.8,3.7,0.9c0.5,0,0.9,0,1.2-0.1
					c0.1-0.1,0.2-0.1,0.3-0.2C8.7,710.4,8.7,710.4,8.7,710.4z"/>
			</g>
		</g>
		
			<radialGradient id="XMLID_503_" cx="536.6573" cy="31.292" r="32.75" gradientTransform="matrix(-1 0 0 1 1091.3146 0)" gradientUnits="userSpaceOnUse">
			<stop  offset="0" style="stop-color:#03DECD"/>
			<stop  offset="1" style="stop-color:#6E36A6"/>
		</radialGradient>
		<circle id="XMLID_465_" class="st17" cx="545.7" cy="45.3" r="32.8"/>
		<g id="XMLID_453_">
			<radialGradient id="XMLID_504_" cx="161.5371" cy="537.3333" r="25.0369" gradientUnits="userSpaceOnUse">
				<stop  offset="0" style="stop-color:#FFA997"/>
				<stop  offset="1" style="stop-color:#F56E58"/>
			</radialGradient>
			<circle id="XMLID_464_" class="st18" cx="170.9" cy="550" r="25"/>
			<g id="XMLID_454_">
				<path id="XMLID_461_" class="st19" d="M170.9,575c8.6,0,16.2-4.4,20.7-11c-10.1,0.6-20,4-28.2,9.9
					C165.7,574.6,168.3,575,170.9,575z"/>
				<path id="XMLID_458_" class="st20" d="M195.5,545.3c-0.5-2.5-1.4-5-2.5-7.2c-16.8-0.7-33.9,5-46.8,15.7c0.3,1.9,0.8,3.8,1.5,5.6
					C161.1,549,178.5,543.8,195.5,545.3z"/>
				<path id="XMLID_455_" class="st21" d="M195.5,545.3c-16.9-1.4-34.4,3.7-47.8,14.2c2.8,6.9,8.6,12.2,15.7,14.5
					c8.2-5.8,18.2-9.3,28.2-9.9c2.7-4,4.3-8.8,4.3-14C195.9,548.4,195.7,546.8,195.5,545.3z"/>
			</g>
		</g>
		<linearGradient id="XMLID_505_" gradientUnits="userSpaceOnUse" x1="398.25" y1="224.8821" x2="413.75" y2="224.8821">
			<stop  offset="0" style="stop-color:#01C0CA"/>
			<stop  offset="1" style="stop-color:#13406A"/>
		</linearGradient>
		<circle id="XMLID_450_" class="st22" cx="406" cy="224.9" r="7.8"/>
		<linearGradient id="XMLID_506_" gradientUnits="userSpaceOnUse" x1="355.9415" y1="593.9161" x2="367.9415" y2="593.9161">
			<stop  offset="0" style="stop-color:#9530A1"/>
			<stop  offset="1" style="stop-color:#401A6C"/>
		</linearGradient>
		<circle id="XMLID_447_" class="st23" cx="361.9" cy="593.9" r="6"/>
		<radialGradient id="XMLID_507_" cx="25.139" cy="328.841" r="4.5623" gradientUnits="userSpaceOnUse">
			<stop  offset="0" style="stop-color:#FFA997"/>
			<stop  offset="1" style="stop-color:#F56E58"/>
		</radialGradient>
		<circle id="XMLID_446_" class="st24" cx="25.1" cy="328.8" r="4.6"/>
		<radialGradient id="XMLID_508_" cx="434.319" cy="516.819" r="10.319" gradientUnits="userSpaceOnUse">
			<stop  offset="0" style="stop-color:#F7969F"/>
			<stop  offset="1" style="stop-color:#F72642"/>
		</radialGradient>
		<circle id="XMLID_445_" class="st25" cx="436.3" cy="520.8" r="10.3"/>
		<g id="XMLID_440_">
			
				<radialGradient id="XMLID_665_" cx="192.0196" cy="361.3766" r="41" gradientTransform="matrix(-1 0 0 1 386.142 0)" gradientUnits="userSpaceOnUse">
				<stop  offset="0" style="stop-color:#F76044"/>
				<stop  offset="1" style="stop-color:#B1304F"/>
			</radialGradient>
			<circle id="XMLID_444_" class="st26" cx="189.1" cy="379.4" r="41"/>
			<path id="XMLID_441_" class="st27" d="M235.8,342.7c2.1-1.6,4.4-2.9,7-3.6c5.1-1.4,9.7-0.1-12.7,22.3
				c-30.8,30.8-94.3,76.9-90.8,62c0.4-1.7,1.4-3.2,2.7-4.4l15.5-13.9l3.5,4c0,0,34-20.2,63.1-51.2l-2.7-3.8L235.8,342.7z"/>
		</g>
		<radialGradient id="XMLID_666_" cx="85.2664" cy="403.445" r="12.5" gradientUnits="userSpaceOnUse">
			<stop  offset="0" style="stop-color:#FFA997"/>
			<stop  offset="1" style="stop-color:#F56E58"/>
		</radialGradient>
		<circle id="XMLID_439_" class="st28" cx="89.3" cy="408.4" r="12.5"/>
		<radialGradient id="XMLID_668_" cx="268.25" cy="375.75" r="9.75" gradientUnits="userSpaceOnUse">
			<stop  offset="0" style="stop-color:#03DECD"/>
			<stop  offset="1" style="stop-color:#6E36A6"/>
		</radialGradient>
		<circle id="XMLID_438_" class="st29" cx="269.3" cy="379.8" r="9.8"/>
		<linearGradient id="XMLID_670_" gradientUnits="userSpaceOnUse" x1="111.5431" y1="338.4012" x2="130.3455" y2="338.4012">
			<stop  offset="0" style="stop-color:#9530A1"/>
			<stop  offset="1" style="stop-color:#401A6C"/>
		</linearGradient>
		<circle id="XMLID_435_" class="st30" cx="120.9" cy="338.4" r="9.4"/>
		<radialGradient id="XMLID_672_" cx="472.1184" cy="425.945" r="36.5" gradientUnits="userSpaceOnUse">
			<stop  offset="0" style="stop-color:#F76044"/>
			<stop  offset="1" style="stop-color:#B1304F"/>
		</radialGradient>
		<circle id="XMLID_434_" class="st31" cx="479.1" cy="444.9" r="36.5"/>
		<g id="XMLID_363_">
			
				<linearGradient id="XMLID_673_" gradientUnits="userSpaceOnUse" x1="162.067" y1="148.8" x2="396.7029" y2="148.8" gradientTransform="matrix(-1 0 0 1 391.0899 0)">
				<stop  offset="0" style="stop-color:#F98AF6;stop-opacity:0.5"/>
				<stop  offset="1" style="stop-color:#F284EE;stop-opacity:0"/>
			</linearGradient>
			<circle id="XMLID_430_" class="st32" cx="111.7" cy="148.8" r="117.3"/>
			<linearGradient id="XMLID_675_" gradientUnits="userSpaceOnUse" x1="169.725" y1="93.7553" x2="52.7308" y2="204.7498">
				<stop  offset="0" style="stop-color:#A949A3"/>
				<stop  offset="1" style="stop-color:#592578"/>
			</linearGradient>
			<circle id="XMLID_431_" class="st33" cx="111.7" cy="148.8" r="103.1"/>
			<linearGradient id="XMLID_677_" gradientUnits="userSpaceOnUse" x1="82.6356" y1="97.0422" x2="213.9698" y2="97.0422">
				<stop  offset="0" style="stop-color:#A949A3"/>
				<stop  offset="1" style="stop-color:#A949A3;stop-opacity:0"/>
			</linearGradient>
			<path id="XMLID_429_" class="st34" d="M83.5,49.6c9-2.5,18.4-3.9,28.2-3.9c52.6,0,95.9,39.3,102.3,90.2
				c-16.4,9.6-35.9,14.2-54.8,11.9c-33.2-4.1-63-28.9-72.8-60.9C82.6,74.8,81.8,62.1,83.5,49.6z"/>
			
				<ellipse id="XMLID_426_" transform="matrix(0.8269 0.5623 -0.5623 0.8269 76.0983 -75.7944)" class="st35" cx="161.2" cy="85.7" rx="18.7" ry="9.3"/>
			<g id="XMLID_364_">
				<g id="XMLID_600_">
					<g id="XMLID_617_">
						
							<ellipse id="XMLID_618_" transform="matrix(-0.7902 0.6128 -0.6128 -0.7902 190.0084 285.6053)" class="st7" cx="46.1" cy="175.3" rx="6.2" ry="10.6"/>
					</g>
					<g id="XMLID_615_">
						
							<ellipse id="XMLID_616_" transform="matrix(-0.6765 0.7365 -0.7365 -0.6765 227.2145 307.2408)" class="st7" cx="46.1" cy="203.5" rx="2.7" ry="6.4"/>
					</g>
					<g id="XMLID_613_">
						
							<ellipse id="XMLID_614_" transform="matrix(-0.6765 0.7365 -0.7365 -0.6765 264.744 329.9212)" class="st7" cx="59.9" cy="223.1" rx="2.7" ry="6.4"/>
					</g>
					<g id="XMLID_611_">
						
							<ellipse id="XMLID_612_" transform="matrix(-0.6765 0.7365 -0.7365 -0.6765 265.2564 277.1787)" class="st7" cx="71.7" cy="196.9" rx="5.1" ry="8"/>
					</g>
					<g id="XMLID_609_">
						
							<ellipse id="XMLID_610_" transform="matrix(-0.2688 0.9632 -0.9632 -0.2688 358.3371 177.7358)" class="st7" cx="111.7" cy="224.9" rx="2" ry="5.3"/>
					</g>
					<g id="XMLID_607_">
						
							<ellipse id="XMLID_608_" transform="matrix(-0.3916 0.9201 -0.9201 -0.3916 328.6666 187.9312)" class="st7" cx="102.2" cy="202.6" rx="2.6" ry="5"/>
					</g>
					<g id="XMLID_605_">
						
							<ellipse id="XMLID_606_" transform="matrix(-0.9818 0.1901 -0.1901 -0.9818 76.4314 272.6227)" class="st7" cx="25.1" cy="140" rx="2.6" ry="5"/>
					</g>
					<g id="XMLID_603_">
						
							<ellipse id="XMLID_604_" transform="matrix(-0.91 0.4147 -0.4147 -0.91 113.9921 316.1541)" class="st7" cx="22.7" cy="170.5" rx="2.5" ry="6.7"/>
					</g>
					<g id="XMLID_601_">
						
							<ellipse id="XMLID_602_" transform="matrix(-0.6765 0.7365 -0.7365 -0.6765 268.7017 186.9987)" class="st7" cx="93.3" cy="152.5" rx="3.1" ry="6.1"/>
					</g>
				</g>
			</g>
		</g>
		<radialGradient id="XMLID_678_" cx="254.9463" cy="-3.458" r="35.5719" gradientUnits="userSpaceOnUse">
			<stop  offset="0" style="stop-color:#9530A1"/>
			<stop  offset="1" style="stop-color:#401A6C"/>
		</radialGradient>
		<circle id="XMLID_362_" class="st36" cx="259.9" cy="12.5" r="35.6"/>
		<linearGradient id="XMLID_679_" gradientUnits="userSpaceOnUse" x1="348.7343" y1="111.4364" x2="424.6679" y2="36.8076">
			<stop  offset="0" style="stop-color:#F7DB00"/>
			<stop  offset="1" style="stop-color:#D21675;stop-opacity:0"/>
		</linearGradient>
		<path id="XMLID_361_" class="st37" d="M447.7,11.2L344,111.9c-1.2,1.2-1.2,3,0,4.2c1.2,1.2,3,1.2,4.2,0L449.6,13.2L447.7,11.2z"/>
		<linearGradient id="XMLID_680_" gradientUnits="userSpaceOnUse" x1="444.6619" y1="323.3157" x2="520.5955" y2="248.6868">
			<stop  offset="0" style="stop-color:#F7DB00"/>
			<stop  offset="1" style="stop-color:#D21675;stop-opacity:0"/>
		</linearGradient>
		<path id="XMLID_513_" class="st38" d="M543.6,223.1L440,323.8c-1.2,1.2-1.2,3,0,4.2c1.2,1.2,3,1.2,4.2,0l101.4-102.9L543.6,223.1z
			"/>
		
			<radialGradient id="XMLID_681_" cx="423.896" cy="220.261" r="65.2467" gradientTransform="matrix(-1 0 0 1 996.1053 0)" gradientUnits="userSpaceOnUse">
			<stop  offset="0" style="stop-color:#00DECF"/>
			<stop  offset="1" style="stop-color:#6C36A5"/>
		</radialGradient>
		<circle id="XMLID_254_" class="st39" cx="539.2" cy="247.3" r="65.2"/>
		
			<radialGradient id="XMLID_682_" cx="566.6483" cy="136.8" r="26.0315" gradientTransform="matrix(-1 0 0 1 996.1053 0)" gradientUnits="userSpaceOnUse">
			<stop  offset="0" style="stop-color:#F76044"/>
			<stop  offset="1" style="stop-color:#B1304F"/>
		</radialGradient>
		<circle id="XMLID_21_" class="st40" cx="425.5" cy="148.8" r="26"/>
		<g id="XMLID_2_">
			<path id="XMLID_514_" class="st8" d="M128.6,298.1C128.6,298.1,128.6,298.1,128.6,298.1C128.6,298.1,128.6,298.1,128.6,298.1z"/>
			<path id="XMLID_515_" class="st8" d="M206.6,300c-1.4,0-1.4,2.1,0,2.1C208,302.2,208,300,206.6,300z"/>
			<path id="XMLID_516_" class="st8" d="M298.1,290.9c-1.5,0-1.5,2.4,0,2.4C299.6,293.3,299.6,290.9,298.1,290.9z"/>
			<path id="XMLID_517_" class="st8" d="M302.6,394.3c-1.7,0-1.7,2.6,0,2.6C304.3,396.9,304.3,394.3,302.6,394.3z"/>
			<path id="XMLID_518_" class="st8" d="M294.9,462.3c-0.2-0.4-0.4-0.8-0.6-1.2c-0.3-0.6-1.2-0.6-1.5,0c-0.2,0.4-0.4,0.8-0.6,1.2
				c-0.5,1,0.1,2.3,1.3,2.3C294.8,464.6,295.4,463.3,294.9,462.3z"/>
			<path id="XMLID_519_" class="st8" d="M404.6,347.6c-2,0-2,3.1,0,3.1C406.6,350.6,406.6,347.6,404.6,347.6z"/>
			<path id="XMLID_520_" class="st8" d="M386.6,299.9c-1.5,0-1.5,2.4,0,2.4C388.1,302.3,388.1,299.9,386.6,299.9z"/>
			<path id="XMLID_521_" class="st8" d="M457.1,240.7c-2.4,0-2.4,3.8,0,3.8C459.5,244.5,459.5,240.7,457.1,240.7z"/>
			<path id="XMLID_522_" class="st8" d="M493.1,157c-2.1,0-2.1,3.3,0,3.3C495.2,160.2,495.2,157,493.1,157z"/>
			<path id="XMLID_523_" class="st8" d="M481.1,153c-1.4,0-1.4,2.1,0,2.1C482.4,155.2,482.4,153,481.1,153z"/>
			<path id="XMLID_524_" class="st8" d="M503.6,149.7c-1.8,0-1.8,2.8,0,2.8C505.4,152.5,505.4,149.7,503.6,149.7z"/>
			<path id="XMLID_525_" class="st8" d="M503.6,175.1c-1.9,0-1.9,2.9,0,2.9C505.5,178.1,505.5,175.1,503.6,175.1z"/>
			<path id="XMLID_526_" class="st8" d="M485.6,141c-1.4,0-1.4,2.2,0,2.2C487,143.2,487,141,485.6,141z"/>
			<path id="XMLID_527_" class="st8" d="M467.6,176.1c-2.5,0-2.5,3.9,0,3.9C470.1,180.1,470.1,176.1,467.6,176.1z"/>
			<path id="XMLID_528_" class="st8" d="M550.1,149.2c-0.5,0-0.5,0.8,0,0.8C550.6,150,550.6,149.2,550.1,149.2z"/>
			<path id="XMLID_529_" class="st8" d="M422.6,23.8c-1.7,0-1.7,2.7,0,2.7C424.3,26.4,424.3,23.8,422.6,23.8z"/>
			<path id="XMLID_530_" class="st8" d="M355.1,46.1c-1.9,0-1.9,2.9,0,2.9C357,49.1,357,46.1,355.1,46.1z"/>
			<path id="XMLID_531_" class="st8" d="M301.1,118.2c-0.4,0-0.9,0.1-1.3,0.1c-0.7,0.1-1.3,0.6-1.3,1.3c0,0.8,0.6,1.3,1.3,1.3
				c0.4,0,0.9,0.1,1.3,0.1c0.8,0.1,1.4-0.7,1.4-1.4C302.5,118.9,301.9,118.1,301.1,118.2z"/>
			<path id="XMLID_532_" class="st8" d="M265.1,96.8c-2.3,0-2.3,3.6,0,3.6C267.4,100.4,267.4,96.8,265.1,96.8z"/>
			<path id="XMLID_533_" class="st8" d="M259.1,143.9c-0.6,0.1-1.3,0.1-1.8,0.4c-0.6,0.4-0.6,1.2,0,1.6c0.5,0.4,1.2,0.4,1.8,0.4
				c0.7,0.1,1.3-0.6,1.3-1.3C260.3,144.5,259.8,143.8,259.1,143.9z"/>
			<path id="XMLID_534_" class="st8" d="M271.1,138.2c-1.1,0-1.1,1.8,0,1.8C272.2,140,272.2,138.2,271.1,138.2z"/>
			<path id="XMLID_535_" class="st8" d="M259.6,120.6c-0.3-0.3-0.2-0.6-0.2-1c0-0.4-0.6-0.4-0.6,0c0,0.4,0.1,0.7-0.2,1
				c-0.5,0.4-0.1,1.3,0.5,1.3C259.7,121.9,260.1,121,259.6,120.6z"/>
			<path id="XMLID_536_" class="st8" d="M112.1,8.4c-0.9,0-2,0.8-1.9,1.9c0,0.4,0.1,0.9,0.1,1.3c0.1,0.9,0.7,1.8,1.8,1.8
				c1,0,1.7-0.8,1.8-1.8c0-0.4,0.1-0.9,0.1-1.3C114.1,9.3,113.1,8.3,112.1,8.4z"/>
			<path id="XMLID_537_" class="st8" d="M47.6,11.9c-1.6,0-1.6,2.5,0,2.5C49.2,14.3,49.2,11.9,47.6,11.9z"/>
			<path id="XMLID_538_" class="st8" d="M31.1,40.5c-1.5,0-1.5,2.3,0,2.3C32.6,42.8,32.6,40.5,31.1,40.5z"/>
			<path id="XMLID_539_" class="st8" d="M186.4,22.3c-0.4,0.2-0.7,0.5-1.1,0.7c-0.4,0.2-0.4,0.9,0,1.1c0.4,0.2,0.7,0.5,1.1,0.7
				c0.9,0.6,2.2-0.2,2.2-1.3C188.6,22.6,187.3,21.7,186.4,22.3z"/>
			<path id="XMLID_540_" class="st8" d="M170.6,16.2c-1.8,0-1.8,2.8,0,2.8C172.4,19,172.4,16.2,170.6,16.2z"/>
			<path id="XMLID_541_" class="st8" d="M194.6,12.9c-2.2,0-2.2,3.4,0,3.4C196.8,16.3,196.8,12.9,194.6,12.9z"/>
			<path id="XMLID_542_" class="st8" d="M169.1,305.1c-2.6,0-2.6,4,0,4C171.7,309.1,171.7,305.1,169.1,305.1z"/>
			<path id="XMLID_543_" class="st8" d="M148.1,340.1c-2,0-2,3.1,0,3.1C150.1,343.1,150.1,340.1,148.1,340.1z"/>
			<path id="XMLID_544_" class="st8" d="M80.6,288.6c-2.5,0-2.5,3.9,0,3.9C83.1,292.6,83.1,288.6,80.6,288.6z"/>
			<path id="XMLID_545_" class="st8" d="M68.6,272.7c-1.8,0-1.8,2.7,0,2.7C70.4,275.5,70.4,272.7,68.6,272.7z"/>
			<path id="XMLID_546_" class="st8" d="M65.6,295.4c-1.5,0-1.5,2.3,0,2.3C67.1,297.7,67.1,295.4,65.6,295.4z"/>
			<path id="XMLID_547_" class="st8" d="M74.6,328.8c-1,0-1,1.5,0,1.5C75.6,330.4,75.6,328.8,74.6,328.8z"/>
			<path id="XMLID_548_" class="st8" d="M55.1,349.5c-1.4,0-1.4,2.1,0,2.1C56.5,351.7,56.5,349.5,55.1,349.5z"/>
			<path id="XMLID_549_" class="st8" d="M107.6,299.2c-2.4,0-2.4,3.8,0,3.8C110,303,110,299.2,107.6,299.2z"/>
			<path id="XMLID_550_" class="st8" d="M89.6,368.8c-1.7,0-1.7,2.7,0,2.7C91.3,371.4,91.3,368.8,89.6,368.8z"/>
			<path id="XMLID_551_" class="st8" d="M29.6,408c-1.4,0-1.4,2.2,0,2.2C31,410.2,31,408,29.6,408z"/>
			<path id="XMLID_552_" class="st8" d="M9.4,396.9c-0.2-0.5-0.4-0.9-0.5-1.4c-0.1-0.3-0.4-0.3-0.5,0c-0.1,0.5-0.3,0.9-0.5,1.4
				c-0.2,0.5,0.3,1,0.8,1C9.1,397.9,9.6,397.4,9.4,396.9z"/>
			<path id="XMLID_553_" class="st8" d="M24.8,384.8c-0.1-0.5-0.3-0.9-0.5-1.4c-0.3-0.5-1.1-0.5-1.4,0c-0.2,0.4-0.4,0.9-0.5,1.4
				c-0.2,0.8,0.4,1.6,1.2,1.6C24.4,386.3,25,385.5,24.8,384.8z"/>
			<path id="XMLID_554_" class="st8" d="M14.6,425.9c-1.5,0-1.5,2.4,0,2.4C16.1,428.3,16.1,425.9,14.6,425.9z"/>
			<path id="XMLID_555_" class="st8" d="M31.1,275.6c-1.9,0-1.9,3,0,3C33,278.6,33,275.6,31.1,275.6z"/>
			<path id="XMLID_556_" class="st8" d="M16.1,296c-2.7,0-2.7,4.3,0,4.3C18.8,300.2,18.8,296,16.1,296z"/>
			<path id="XMLID_557_" class="st8" d="M20.7,269.3c-0.5-0.1-1.1-0.2-1.6-0.2c-0.7-0.1-0.7,1.2,0,1.1c0.5-0.1,1.1-0.1,1.6-0.2
				C21,269.9,21,269.3,20.7,269.3z"/>
			<path id="XMLID_558_" class="st8" d="M17.6,259.8c-1,0-1,1.6,0,1.6C18.6,261.4,18.6,259.8,17.6,259.8z"/>
			<path id="XMLID_559_" class="st8" d="M40.1,260.8c-1.7,0-1.7,2.7,0,2.7C41.8,263.4,41.8,260.8,40.1,260.8z"/>
			<path id="XMLID_560_" class="st8" d="M233.6,229.9c-0.9,0-0.9,1.3,0,1.3C234.4,231.3,234.4,229.9,233.6,229.9z"/>
			<path id="XMLID_561_" class="st8" d="M232.1,200.4c-2.2,0-2.2,3.4,0,3.4C234.3,203.8,234.3,200.4,232.1,200.4z"/>
			<path id="XMLID_562_" class="st8" d="M257.6,190.3c-3.7,0-3.7,5.7,0,5.7C261.3,196,261.3,190.3,257.6,190.3z"/>
			<path id="XMLID_563_" class="st8" d="M263.6,208.4c-1.6,0-1.6,2.5,0,2.5C265.2,210.9,265.2,208.4,263.6,208.4z"/>
			<path id="XMLID_564_" class="st8" d="M325.1,202c-2,0-2,3.2,0,3.2C327.1,205.2,327.1,202,325.1,202z"/>
			<path id="XMLID_565_" class="st8" d="M353.6,178.7c-1.2,0-1.2,1.8,0,1.8C354.7,180.5,354.7,178.7,353.6,178.7z"/>
			<path id="XMLID_566_" class="st8" d="M358.1,145.2c-1.8,0-1.8,2.8,0,2.8C359.9,148,359.9,145.2,358.1,145.2z"/>
			<path id="XMLID_567_" class="st8" d="M371.6,162.2c-1.2,0-1.2,1.8,0,1.8C372.7,164,372.7,162.2,371.6,162.2z"/>
			<path id="XMLID_568_" class="st8" d="M380.6,178.9c-0.9,0-0.9,1.4,0,1.4C381.5,180.3,381.5,178.9,380.6,178.9z"/>
			<path id="XMLID_569_" class="st8" d="M379.1,196.6c-1.3,0-1.3,2,0,2C380.4,198.6,380.4,196.6,379.1,196.6z"/>
			<path id="XMLID_570_" class="st8" d="M361.1,209.6C361.1,209.6,361.1,209.6,361.1,209.6c-0.6-0.5-1.3-0.8-2.1-0.6
				c-0.9,0.2-1.6,1.1-1.5,2c0,0.9,0.5,1.6,1.3,1.9c0.9,0.4,1.7,0.1,2.3-0.5c0,0,0,0,0,0c0.8,0,1.5-0.6,1.5-1.5
				C362.6,210.3,361.9,209.7,361.1,209.6z"/>
			<path id="XMLID_571_" class="st8" d="M361.1,262.1c-0.2,0-0.4,0-0.6,0c0,0-0.5-0.1-0.3,0c-1.1-0.2-2.1,0.5-2.1,1.6
				c0,1.1,1.1,1.8,2.1,1.6c-0.2,0,0.3,0,0.3,0c0.2,0,0.4,0,0.6,0c0.8-0.1,1.6-0.7,1.5-1.5C362.6,262.7,362,262.1,361.1,262.1z"/>
			<path id="XMLID_572_" class="st8" d="M419.6,268c-2,0-2,3.2,0,3.2C421.6,271.2,421.6,268,419.6,268z"/>
			<path id="XMLID_573_" class="st8" d="M2.6,61c-2,0-2,3.2,0,3.2C4.6,64.2,4.6,61,2.6,61z"/>
			<path id="XMLID_574_" class="st8" d="M506.6,341.3c-2.3,0-2.3,3.6,0,3.6C508.9,344.9,508.9,341.3,506.6,341.3z"/>
			<path id="XMLID_575_" class="st8" d="M545.1,331.4c0-0.1,0-0.2,0-0.3c-0.1-1.3-2-1.3-2.1,0c0,0.1,0,0.2,0,0.3
				c-0.3,0.3-0.6,0.7-0.6,1.2c0,0.8,0.7,1.7,1.6,1.6c0.8,0,1.7-0.7,1.6-1.6C545.7,332.1,545.5,331.7,545.1,331.4z"/>
			<path id="XMLID_576_" class="st8" d="M569.6,317.7c-1.8,0-1.8,2.9,0,2.9C571.4,320.5,571.4,317.7,569.6,317.7z"/>
			<path id="XMLID_577_" class="st8" d="M547.1,355c-2,0-2,3.2,0,3.2C549.1,358.2,549.1,355,547.1,355z"/>
			<path id="XMLID_578_" class="st8" d="M526.6,321.5c-0.6-0.6-1.2-0.8-2.1-0.9c-0.8-0.1-1.5-0.2-2.3,0c-1.2,0.4-2.3,1.5-2.2,2.9
				c0.1,1.4,0.9,2.4,2.2,2.9c0.8,0.3,1.5,0.1,2.3,0c0.8-0.1,1.5-0.3,2.1-0.9c0.5-0.5,0.9-1.3,0.9-2.1
				C527.5,322.8,527.2,322.1,526.6,321.5z"/>
			<path id="XMLID_579_" class="st8" d="M490.1,336.3c-1,0-1,1.6,0,1.6C491.1,337.9,491.1,336.3,490.1,336.3z"/>
			<path id="XMLID_581_" class="st8" d="M499.1,355.2c-1.7,0-1.7,2.7,0,2.7C500.8,357.9,500.8,355.2,499.1,355.2z"/>
			<path id="XMLID_582_" class="st8" d="M505.1,374.7c-0.5,0-1.1,0-1.7,0.1c-1.3,0.4-1.3,2.2,0,2.6c0.5,0.2,1.1,0.1,1.7,0.1
				c0.8,0,1.4-0.7,1.4-1.4C506.5,375.3,505.9,374.7,505.1,374.7z"/>
			<path id="XMLID_583_" class="st8" d="M470.6,383.5c-1.1,0-1.7,1-1.6,2.1c0,0.3,0.1,0.6,0.2,0.9c0.1,0.3,0.3,0.5,0.5,0.7
				c0.5,0.7,1.3,0.7,1.8,0c0.2-0.2,0.4-0.4,0.5-0.7c0.1-0.3,0.1-0.6,0.2-0.9C472.3,384.5,471.7,383.5,470.6,383.5z"/>
			<path id="XMLID_584_" class="st8" d="M536.6,401.6c-2,0-2,3,0,3C538.5,404.6,538.5,401.6,536.6,401.6z"/>
			<path id="XMLID_585_" class="st8" d="M593.6,376.3c-1.6,0-1.6,2.5,0,2.5C595.2,378.8,595.2,376.3,593.6,376.3z"/>
			<path id="XMLID_586_" class="st8" d="M595.1,347.7c-1.7,0-1.7,2.7,0,2.7C596.8,350.4,596.8,347.7,595.1,347.7z"/>
			<path id="XMLID_587_" class="st8" d="M574.1,164.9c-1.6,0-1.6,2.5,0,2.5C575.7,167.4,575.7,164.9,574.1,164.9z"/>
			<path id="XMLID_588_" class="st8" d="M553.1,174c-1.4,0-1.4,2.2,0,2.2C554.5,176.2,554.5,174,553.1,174z"/>
			<path id="XMLID_589_" class="st8" d="M581.6,180c-0.6,0-1.2,0-1.8,0.3c-0.6,0.3-0.6,1.4,0,1.7c0.6,0.3,1.2,0.2,1.8,0.3
				C583,182.3,583,179.9,581.6,180z"/>
			<path id="XMLID_590_" class="st8" d="M580.1,152.4c-0.2,0-0.2,0.3,0,0.3C580.3,152.8,580.3,152.4,580.1,152.4z"/>
			<path id="XMLID_591_" class="st8" d="M587.9,137c-0.5-0.2-1-0.4-1.5-0.6c-0.8-0.2-1.5,0.4-1.5,1.2c0,0.8,0.8,1.4,1.5,1.2
				c0.5-0.2,1-0.3,1.5-0.6C588.4,138,588.4,137.2,587.9,137z"/>
			<path id="XMLID_592_" class="st8" d="M580.1,100.1c-1.9,0-1.9,3,0,3C582,103.1,582,100.1,580.1,100.1z"/>
			<path id="XMLID_593_" class="st8" d="M587.6,14.5c-2.1,0-2.1,3.3,0,3.3C589.7,17.8,589.7,14.5,587.6,14.5z"/>
			<path id="XMLID_594_" class="st8" d="M464.6,35.5c-1.1,0-2.1,1.4-1.4,2.4c0.3,0.4,0.5,0.7,0.7,1.1c0.2,0.5,1.1,0.5,1.4,0
				c0.2-0.4,0.4-0.7,0.7-1.1C466.7,36.9,465.7,35.5,464.6,35.5z"/>
			<path id="XMLID_595_" class="st8" d="M448.1,67.2c-1.9,0-1.9,2.9,0,2.9C449.9,70.1,449.9,67.2,448.1,67.2z"/>
			<path id="XMLID_596_" class="st8" d="M425.6,80.8c-0.4,0-0.9,0.1-1.3,0.1c-1.5,0.1-1.5,2.2,0,2.4c0.4,0,0.9,0.1,1.3,0.1
				c0.7,0.1,1.3-0.6,1.3-1.3C426.9,81.5,426.3,80.8,425.6,80.8z"/>
			<path id="XMLID_597_" class="st8" d="M337.1,70.2c-1.9,0-1.9,2.9,0,2.9C338.9,73.1,339,70.2,337.1,70.2z"/>
			<path id="XMLID_598_" class="st8" d="M337.1,25.3c-1.6,0-1.6,2.5,0,2.5C338.7,27.9,338.7,25.3,337.1,25.3z"/>
			<path id="XMLID_599_" class="st8" d="M376.1,17.9c-1.6,0-1.6,2.5,0,2.5C377.7,20.4,377.7,17.9,376.1,17.9z"/>
			<path id="XMLID_619_" class="st8" d="M353.6,476.1c-2.6,0-2.6,4.1,0,4.1C356.2,480.1,356.2,476.1,353.6,476.1z"/>
			<path id="XMLID_620_" class="st8" d="M350.6,337.5c-1.4,0-1.4,2.2,0,2.2C352,339.7,352,337.5,350.6,337.5z"/>
			<path id="XMLID_621_" class="st8" d="M344.6,350.6c-1.9,0-1.9,3,0,3C346.5,353.6,346.5,350.6,344.6,350.6z"/>
			<path id="XMLID_622_" class="st8" d="M326.6,369.9c-2.2,0-2.2,3.4,0,3.4C328.8,373.3,328.8,369.9,326.6,369.9z"/>
			<path id="XMLID_623_" class="st8" d="M370.1,365.3c-2.3,0-2.3,3.6,0,3.6C372.4,368.9,372.4,365.3,370.1,365.3z"/>
			<path id="XMLID_624_" class="st8" d="M343.1,293.3c-2.4,0-2.4,3.7,0,3.7C345.5,296.9,345.5,293.3,343.1,293.3z"/>
			<path id="XMLID_625_" class="st8" d="M260.6,273.2c-1.2,0-1.2,1.9,0,1.9C261.8,275,261.8,273.2,260.6,273.2z"/>
			<path id="XMLID_626_" class="st8" d="M239.6,249.2c-1.2,0-1.2,1.8,0,1.8C240.7,251,240.8,249.2,239.6,249.2z"/>
			<path id="XMLID_627_" class="st8" d="M518.6,395.6c-0.5,0-1,0.1-1.5,0.1c-0.8,0-1.4,0.6-1.4,1.4c0,0.8,0.7,1.4,1.4,1.4
				c0.5,0,1,0.1,1.5,0.1c0.8,0,1.6-0.7,1.5-1.5C520.1,396.3,519.4,395.5,518.6,395.6z"/>
			<path id="XMLID_628_" class="st8" d="M530.6,462c-0.6-0.1-1.2-0.2-1.8-0.1c-1.2,0.2-1.2,2.2,0,2.4c0.6,0.1,1.2,0,1.8-0.1
				C532,464.1,532,462.1,530.6,462z"/>
			<path id="XMLID_629_" class="st8" d="M496.1,514.5c-0.3,0-0.7,0-1-0.1c-0.8-0.3-1.6,0.5-1.6,1.2c0,0.8,0.8,1.5,1.6,1.2
				c0.3-0.1,0.7-0.1,1-0.1C497.5,516.5,497.5,514.6,496.1,514.5z"/>
			<path id="XMLID_630_" class="st8" d="M481.1,539.6c-1.9,0-1.9,3,0,3C483,542.6,483,539.6,481.1,539.6z"/>
			<path id="XMLID_631_" class="st8" d="M550.1,495.8c-2.3,0-2.3,3.5,0,3.5C552.3,499.3,552.3,495.8,550.1,495.8z"/>
			<path id="XMLID_632_" class="st8" d="M572.6,471.9c-2.2,0-2.2,3.4,0,3.4C574.7,475.3,574.7,471.9,572.6,471.9z"/>
			<path id="XMLID_633_" class="st8" d="M559.1,454.5c0,0-0.1,0-0.1,0c-0.5-0.5-1.1-0.8-1.8-0.6c-0.7,0.2-1.3,0.9-1.3,1.7
				c0,0.7,0.4,1.3,1.1,1.6c0.8,0.3,1.5,0.1,2-0.5c0,0,0.1,0,0.1,0C560.5,456.6,560.5,454.6,559.1,454.5z"/>
			<path id="XMLID_634_" class="st8" d="M526.1,428.6c-1.9,0-1.9,2.9,0,2.9C527.9,431.5,527.9,428.6,526.1,428.6z"/>
			<path id="XMLID_635_" class="st8" d="M566.1,389.8c0-1.3-2-1.3-2.1,0c0,0.4,0,0.9,0,1.3c0,1.4,2.2,1.4,2.1,0
				C566.1,390.7,566.1,390.2,566.1,389.8z"/>
			<path id="XMLID_636_" class="st8" d="M521.6,355.2c-1.8,0-1.8,2.7,0,2.7C523.3,358,523.3,355.2,521.6,355.2z"/>
			<path id="XMLID_637_" class="st8" d="M316.1,585.9c-2.1,0-2.1,3.3,0,3.3C318.2,589.2,318.2,585.9,316.1,585.9z"/>
			<path id="XMLID_638_" class="st8" d="M242.6,587.9c-1.5,0-1.5,2.3,0,2.3C244.1,590.2,244.1,587.9,242.6,587.9z"/>
			<path id="XMLID_639_" class="st8" d="M233.6,630c-1.4,0-1.4,2.2,0,2.2C235,632.2,235,630,233.6,630z"/>
			<path id="XMLID_640_" class="st8" d="M328.1,637.1c-1.9,0-1.9,2.9,0,2.9C329.9,640,330,637.1,328.1,637.1z"/>
			<path id="XMLID_641_" class="st8" d="M326.6,677.5c-2,0-2,3.1,0,3.1C328.6,680.6,328.6,677.5,326.6,677.5z"/>
			<path id="XMLID_642_" class="st8" d="M344.6,539.5c-0.1-0.6-0.9-1.2-1.5-1.1c-0.6,0-1.4,0.5-1.5,1.1c-0.1,0.5-0.1,1-0.1,1.5
				c0,0.8,0.8,1.7,1.6,1.6c0.8,0,1.7-0.7,1.6-1.6C344.7,540.6,344.7,540.1,344.6,539.5z"/>
			<path id="XMLID_643_" class="st8" d="M229.1,525.2c-1.1,0-1.1,1.8,0,1.8C230.2,527,230.2,525.2,229.1,525.2z"/>
			<path id="XMLID_644_" class="st8" d="M197.6,505.5c-1.5,0-1.5,2.3,0,2.3C199.1,507.7,199.1,505.5,197.6,505.5z"/>
			<path id="XMLID_645_" class="st8" d="M379.1,623.6c-0.8-0.1-1.6,0.8-1.5,1.5c0,0.7,0.7,1.6,1.5,1.5c0.5-0.1,1-0.1,1.5-0.2
				c0.5-0.2,1-0.7,1-1.3C381.5,623.7,380.1,623.7,379.1,623.6z"/>
			<path id="XMLID_646_" class="st8" d="M374.6,661c-0.2,0-0.5,0-0.7,0c-0.2,0-0.4-0.2-0.6-0.3c-0.6-0.2-0.6,0.9,0,0.8
				c0.2-0.1,0.4-0.2,0.6-0.3c0.2,0,0.5,0,0.7,0C374.7,661.2,374.7,661,374.6,661z"/>
			<path id="XMLID_647_" class="st8" d="M416.6,587.7c-1.7,0-1.7,2.7,0,2.7C418.3,590.4,418.3,587.7,416.6,587.7z"/>
			<path id="XMLID_648_" class="st8" d="M394.1,557.8c-1.7,0-1.7,2.6,0,2.6C395.7,560.4,395.7,557.8,394.1,557.8z"/>
			<path id="XMLID_649_" class="st8" d="M519.6,548.5c-0.2,0.1-0.4,0.2-0.6,0.3c-0.3,0-0.6,0.3-0.8,0.6c-0.1,0.2-0.2,0.4-0.2,0.6
				c0,0.3,0,0.6,0.2,0.9c0.2,0.3,0.5,0.5,0.9,0.6l0.6,0.3C522.3,552.8,522.3,547.4,519.6,548.5z"/>
			<path id="XMLID_650_" class="st8" d="M535.1,573.6c-0.7,0-0.7,1.1,0,1.1C535.8,574.6,535.8,573.6,535.1,573.6z"/>
			<path id="XMLID_651_" class="st8" d="M559.1,557.7c-1.8,0-1.8,2.8,0,2.8C560.9,560.5,560.9,557.7,559.1,557.7z"/>
			<path id="XMLID_652_" class="st8" d="M212.6,666c-1.4,0-1.4,2.1,0,2.1C214,668.2,214,666,212.6,666z"/>
			<path id="XMLID_653_" class="st8" d="M216.8,600.6c-0.6-0.9-1.8-0.9-2.3,0c-0.4,0.6-0.3,1.3-0.3,2c0,0.8,0.7,1.5,1.5,1.5
				c0.8,0,1.5-0.7,1.5-1.5C217.1,601.9,217.1,601.2,216.8,600.6z"/>
			<path id="XMLID_654_" class="st8" d="M130.1,469.2c-1.8,0-1.8,2.9,0,2.9C131.9,472,131.9,469.2,130.1,469.2z"/>
			<path id="XMLID_655_" class="st8" d="M149.6,456.9c-0.5-1.5-2.5-1.5-3,0c-0.2,0.5-0.1,1.2-0.1,1.7c0,0.9,0.8,1.7,1.6,1.6
				c0.9,0,1.7-0.7,1.6-1.6C149.7,458,149.8,457.4,149.6,456.9z"/>
			<path id="XMLID_656_" class="st8" d="M124.1,434.7c-1.8,0-1.8,2.8,0,2.8C125.9,437.5,125.9,434.7,124.1,434.7z"/>
			<path id="XMLID_657_" class="st8" d="M117.1,389.6c0-1-0.9-2-2-2c-1,0-2,0.9-2,2c0,0.6,0.3,1.1,0.7,1.5c0,0,0,0,0,0
				c0,1.6,2.4,1.6,2.5,0C116.8,390.7,117.1,390.2,117.1,389.6z"/>
			<path id="XMLID_658_" class="st8" d="M83.6,443.8c-1.7,0-1.7,2.7,0,2.7C85.3,446.4,85.3,443.8,83.6,443.8z"/>
			<path id="XMLID_659_" class="st8" d="M209.3,458.8c-0.1-1.5-2.2-1.5-2.4,0c0,0.4-0.1,0.9-0.1,1.3c-0.1,0.7,0.6,1.3,1.3,1.3
				c0.7,0,1.3-0.6,1.3-1.3C209.3,459.7,209.3,459.2,209.3,458.8z"/>
			<path id="XMLID_660_" class="st8" d="M276.1,440.4c-0.3-0.5-0.8-0.6-1.4-0.8c-0.3-0.2-0.6-0.2-0.9-0.1c-1.2,0.3-2.1,1-2.6,2.3
				c-0.6,1.7,2.3,2.5,2.7,0.7c0,0,0.1-0.4,0.1-0.2c0,0,0-0.1,0-0.1c0,0,0,0,0.1-0.1c0.1-0.1,0.1-0.1,0.2-0.2c0,0,0,0,0,0
				c0.1-0.1,0.3-0.1,0.4-0.2c0.1-0.1,0.2-0.1,0.3-0.3c0.2-0.1,0.5,0,0.7-0.1C276.1,441.3,276.3,440.7,276.1,440.4z"/>
			<path id="XMLID_661_" class="st8" d="M316.1,427.5c-1.4,0-1.4,2.1,0,2.1C317.4,429.6,317.4,427.5,316.1,427.5z"/>
			<path id="XMLID_662_" class="st8" d="M361.1,445.3c-1.7,0-1.7,2.7,0,2.7C362.8,447.9,362.8,445.3,361.1,445.3z"/>
			<path id="XMLID_663_" class="st8" d="M430.1,388.1c-2,0-2,3,0,3C432,391.1,432,388.1,430.1,388.1z"/>
		</g>
	</g>
</g>
</svg>
